<?xml version="1.0" encoding="UTF-8"?><svg id="a" xmlns="http://www.w3.org/2000/svg" viewBox="0 0 600 600"><path d="M300.00002,349.83233L60.10782,589.72332c-6.54689,6.54769-14.77643,9.89718-24.6886,10.04851-9.91138,.1521-18.29224-3.1974-25.14256-10.04851C3.42557,582.87298,.00002,574.5678,0,564.80774c.00002-9.76007,3.42557-18.06526,10.27666-24.91556l239.89101-239.8922L10.27668,60.10778C3.72899,53.56092,.3795,45.33136,.22817,35.41922,.07607,25.50788,3.42557,17.127,10.27668,10.27666,17.12702,3.42553,25.4322,0,35.19226,0s18.06526,3.42553,24.91556,10.27666l239.8922,239.89097L539.89222,10.27659c6.54686-6.54772,14.77643-9.8972,24.68856-10.04851,9.91134-.15217,18.29222,3.19738,25.14256,10.04851,6.85113,6.85027,10.27666,15.15552,10.27666,24.91556s-3.42553,18.06522-10.27666,24.91556l-239.89097,239.89227,239.89105,239.8922c6.54772,6.54689,9.8972,14.77643,10.04851,24.6886,.15217,9.91138-3.19738,18.29224-10.04851,25.14256-6.85027,6.8511-15.15552,10.27664-24.91556,10.27666-9.76004-.00002-18.06522-3.42557-24.91556-10.27666l-239.89227-239.89101Z"/></svg>