<?xml version="1.0" encoding="UTF-8"?><svg id="a" xmlns="http://www.w3.org/2000/svg" viewBox="0 0 599.99992 600"><path d="M299.99998,436.46145c-4.82066,.00003-9.30768-.76935-13.46104-2.30802-4.15401-1.538-8.10266-4.17903-11.84605-7.92303l-124.38441-124.3834c-5.94869-5.94869-8.88437-12.91005-8.80704-20.88407,.07666-7.97403,3.01234-15.06368,8.80704-21.26908,6.20534-6.20467,13.33339-9.4097,21.38407-9.61502,8.05133-.20532,15.17971,2.79469,21.38508,9.00003l76.92326,76.92326V30.0001c0-8.51272,2.87168-15.64068,8.61502-21.38404,5.74337-5.74404,12.87135-8.61606,21.38407-8.61606s15.64071,2.87202,21.38407,8.61606c5.74334,5.74337,8.61502,12.87132,8.61502,21.38404V336.00211l76.92326-76.92326c5.94869-5.94869,13.01268-8.88467,21.19209-8.80801,8.17935,.07733,15.37169,3.21833,21.5771,9.423,5.7947,6.2054,8.7944,13.23103,8.99905,21.07706,.20532,7.84603-2.79438,14.87139-8.99905,21.07606l-124.38444,124.38346c-3.74333,3.744-7.69204,6.385-11.84605,7.92303-4.15336,1.53867-8.64038,2.30802-13.46104,2.30799Zm-227.69174,163.53853c-20.20539-.00002-37.30811-7.00004-51.30817-21.00007C7.00004,564.99985,.00002,547.89714,0,527.69175v-78.46127c.00002-8.51269,2.872-15.64071,8.61603-21.38407,5.74337-5.74334,12.87138-8.61502,21.38407-8.61502s15.64072,2.87168,21.38407,8.61502c5.74335,5.74337,8.61502,12.87138,8.61502,21.3841v78.46126c0,3.07736,1.282,5.89835,3.84601,8.46303,2.56468,2.564,5.38567,3.84601,8.46303,3.84601h455.38348c3.07734,0,5.8984-1.282,8.46304-3.84601,2.56403-2.56468,3.84602-5.38567,3.84602-8.46303v-78.46126c0-8.51272,2.87165-15.64071,8.61502-21.38407,5.74337-5.74334,12.87138-8.61499,21.38404-8.61502,8.51272,.00003,15.64074,2.87168,21.38404,8.61502,5.74404,5.74337,8.61606,12.87135,8.61606,21.38407v78.46126c0,20.2054-7.00002,37.30812-21.00007,51.30817-14.00005,14.00005-31.10276,21.00007-51.30815,21.00007l-455.38347-.00002Z"/></svg>