<?xml version="1.0" encoding="UTF-8"?><svg id="a" xmlns="http://www.w3.org/2000/svg" viewBox="0 0 599.98096 506.55078"><g><path d="M598.57617,444.24609c-1.5625-.25977-3.17383-.39062-4.83398-.39062-5.43652,0-9.09863,2.08398-10.98633,6.25v36.13281h-11.86523v-52.83203h11.32812l.29297,5.9082c2.86426-4.58984,6.83594-6.88477,11.91406-6.88477,1.69238,0,3.09277,.22852,4.19922,.68359l-.04883,11.13281Z"/><path d="M540.51953,487.21484c-7.51953,0-13.61523-2.36816-18.28613-7.10449s-7.00684-11.04297-7.00684-18.9209v-1.46484c0-5.27344,1.01758-9.98535,3.05176-14.13574s4.89062-7.38086,8.56934-9.69238c3.67871-2.31055,7.78027-3.4668,12.30469-3.4668,7.19434,0,12.75195,2.29492,16.6748,6.88477s5.88379,11.08398,5.88379,19.48242v4.78516h-34.52148c.3584,4.3623,1.81445,7.8125,4.37012,10.35156s5.76953,3.80859,9.64355,3.80859c5.43652,0,9.86328-2.19727,13.28125-6.5918l6.39648,6.10352c-2.11621,3.1582-4.93945,5.60742-8.47168,7.34863s-7.49512,2.6123-11.88965,2.6123Zm-1.41602-45.26367c-3.25488,0-5.88379,1.13965-7.88574,3.41797-2.00195,2.2793-3.2793,5.45312-3.83301,9.52148h22.60742v-.87891c-.26074-3.9707-1.31836-6.97363-3.17383-9.00879-1.85547-2.03418-4.42676-3.05176-7.71484-3.05176Z"/><path d="M507.21875,460.35938c0,8.1709-1.85547,14.68945-5.56641,19.55566-3.71094,4.86719-8.69141,7.2998-14.94141,7.2998-5.79395,0-10.43262-1.9043-13.91602-5.71289v25.04883h-11.86523v-73.14453h10.9375l.48828,5.37109c3.4834-4.23145,8.21973-6.34766,14.20898-6.34766,6.44531,0,11.49902,2.40137,15.16113,7.20215,3.66211,4.80176,5.49316,11.4668,5.49316,19.99512v.73242Zm-11.81641-1.02539c0-5.27344-1.0498-9.45605-3.14941-12.54883-2.09961-3.0918-5.10254-4.63867-9.00879-4.63867-4.85059,0-8.33301,2.00195-10.44922,6.00586v23.4375c2.14844,4.10156,5.66406,6.15234,10.54688,6.15234,3.77637,0,6.73047-1.52148,8.8623-4.56543,2.13184-3.04297,3.19824-7.65723,3.19824-13.84277Z"/><path d="M448.03906,486.23828h-11.86523v-75h11.86523v75Z"/><path d="M405.02148,487.21484c-7.51953,0-13.61523-2.36816-18.28613-7.10449s-7.00684-11.04297-7.00684-18.9209v-1.46484c0-5.27344,1.01758-9.98535,3.05176-14.13574s4.89062-7.38086,8.56934-9.69238c3.67871-2.31055,7.78027-3.4668,12.30469-3.4668,7.19434,0,12.75195,2.29492,16.6748,6.88477s5.88379,11.08398,5.88379,19.48242v4.78516h-34.52148c.3584,4.3623,1.81445,7.8125,4.37012,10.35156s5.76953,3.80859,9.64355,3.80859c5.43652,0,9.86328-2.19727,13.28125-6.5918l6.39648,6.10352c-2.11621,3.1582-4.93945,5.60742-8.47168,7.34863s-7.49512,2.6123-11.88965,2.6123Zm-1.41602-45.26367c-3.25488,0-5.88379,1.13965-7.88574,3.41797-2.00195,2.2793-3.2793,5.45312-3.83301,9.52148h22.60742v-.87891c-.26074-3.9707-1.31836-6.97363-3.17383-9.00879-1.85547-2.03418-4.42676-3.05176-7.71484-3.05176Z"/><path d="M368.30273,486.23828h-12.30469v-31.54297h-31.78711v31.54297h-12.35352v-71.09375h12.35352v29.58984h31.78711v-29.58984h12.30469v71.09375Z"/></g><g><path d="M599.33447,360.33252c-.40918-.33105-.94531-.45898-1.45898-.35059-3.42188,.72852-6.08789,1.09668-7.9248,1.09668-3.53027,0-5.99512-.82129-7.33984-2.45801-1.42285-1.69336-2.14355-4.40527-2.14355-8.05859v-61.50195h17.28418c.96289,0,1.74316-.78027,1.74316-1.74316v-13.47559c0-.96289-.78027-1.74316-1.74316-1.74316h-17.28418v-22.93848c0-.96289-.78027-1.74316-1.74316-1.74316h-17.42773c-.96289,0-1.74316,.78027-1.74316,1.74316v22.93848h-16.83887c-.96289,0-1.74316,.78027-1.74316,1.74316v13.47559c0,.96289,.78027,1.74316,1.74316,1.74316h16.83887v61.50195c0,9.06445,2.13574,16.19824,6.3457,21.20312,4.28027,5.0918,10.6543,7.67383,18.94531,7.67383,4.46582,0,9.12598-.65527,13.85254-1.94727,.75781-.20703,1.28418-.89551,1.28418-1.68066v-14.12402c0-.52539-.23828-1.02344-.64648-1.35449Z"/><path d="M519.95459,250.10498c2.75488-2.9541,6.62695-4.38965,11.83691-4.38965,3.19922,0,6.25879,.27539,9.09473,.81934,.49121,.09277,.99805-.02637,1.39355-.33301,.39551-.30566,.64062-.76562,.67383-1.26465l.93164-14.14355c.05371-.82715-.48145-1.57812-1.28223-1.7959-4.05664-1.10352-8.23242-1.66309-12.41211-1.66309-11.12988,0-19.8877,3.19043-26.02637,9.47852-6.1543,6.26074-9.27539,15.2002-9.27539,26.57227v8.71289h-14.36621c-.96289,0-1.74316,.78027-1.74316,1.74316v13.47559c0,.96289,.78027,1.74316,1.74316,1.74316h14.36621v86.75098c0,.96289,.78027,1.74316,1.74316,1.74316h17.42773c.96289,0,1.74316-.78027,1.74316-1.74316v-86.75098h20.04102c.96289,0,1.74316-.78027,1.74316-1.74316v-13.47559c0-.96289-.78027-1.74316-1.74316-1.74316h-20.04102v-8.99609c0-5.66895,1.39648-10.04199,4.15137-12.99707Z"/><path d="M462.46826,351.98096l-.00098-46.97363c-.25391-10.75879-3.94336-19.35254-10.96387-25.54102-6.94336-6.13867-16.61816-9.25195-28.75391-9.25195-7.65137,0-14.75781,1.44922-21.11426,4.30469-6.45215,2.86719-11.63086,6.83984-15.39062,11.80371-3.82715,5.0293-5.76758,10.3418-5.76758,15.78809,0,.96289,.78027,1.74316,1.74316,1.74316h17.52832c.96289,0,1.74316-.78027,1.74316-1.74316,0-3.90137,1.83301-7.16992,5.60254-9.99121,3.89453-2.9043,8.80762-4.37598,14.60156-4.37598,6.60156,0,11.61523,1.65625,14.9043,4.92676,3.33398,3.2959,4.9541,7.65039,4.9541,13.31055v6.26074h-15.23828c-14.93262,0-26.73828,3.07812-35.09082,9.15039-8.5166,6.20605-12.83496,15.00488-12.83496,26.15039,0,9.22363,3.45215,16.93848,10.25586,22.92773,6.7334,5.95117,15.44629,8.96875,25.89648,8.96875,10.55664,0,19.88477-3.60938,27.77832-10.7373,.58887,3.5918,1.29102,6.18652,2.12891,7.88184,.29395,.59473,.89941,.9707,1.5625,.9707h18.2998c.96289,0,1.74316-.78027,1.74316-1.74316v-1.49902c0-.23828-.04883-.47363-.14355-.69141-2.28516-5.28613-3.44336-12.56641-3.44336-21.63965Zm-30.70312,4.79297c-4.61328,2.66895-9.54883,4.02148-14.66992,4.02148-5.28418,0-9.62891-1.41406-12.91797-4.20898-3.2666-2.75684-4.85352-6.51758-4.85352-11.49609,0-11.44043,9.90918-17.00098,30.29492-17.00098h11.93555v18.75879c-2.06738,4.04395-5.35742,7.38086-9.78906,9.92578Z"/><path d="M371.5835,271.71143c-2.03906-1.00684-4.81641-1.49707-8.49219-1.49707-9.31543,0-16.92871,3.44141-22.69922,10.24414l-.16016-6.65918c-.02246-.94629-.7959-1.70117-1.74219-1.70117h-16.96094c-.96289,0-1.74316,.78027-1.74316,1.74316v101.96973c0,.96289,.78027,1.74316,1.74316,1.74316h17.42676c.96289,0,1.74316-.78027,1.74316-1.74316v-72.00684c3.85742-8.89746,10.9082-13.22363,21.54102-13.22363,3.09375,0,5.80273,.2041,8.28125,.62305,.50293,.08496,1.02344-.05566,1.41602-.38672,.3916-.33105,.61816-.81836,.61816-1.33105v-16.21191c0-.66309-.37695-1.26855-.97168-1.5625Z"/><path d="M299.5625,330.54053h-18.19727c-.85889,0-1.58936,.62598-1.72168,1.47461-1.68848,10.82324-5.08838,18.4707-10.10547,22.73047-5.01416,4.25586-12.4209,6.41406-22.01367,6.41406-10.67627,0-18.74902-4.07324-24.67871-12.45508-5.97314-8.44434-9.00195-20.05762-9.00195-34.5166v-13.29297c0-15.2998,3.19238-27.21484,9.48877-35.41504,6.27539-8.17285,14.71875-12.14551,25.8125-12.14551,8.92285,0,15.92676,2.31641,20.81445,6.88477,4.92969,4.62305,8.18652,12.26855,9.68066,22.72461,.12256,.85938,.85791,1.49707,1.7251,1.49707h18.19727c.49268,0,.9624-.20898,1.29248-.57422,.33105-.36621,.49121-.85449,.44141-1.34473-1.49805-14.77734-6.85156-26.51465-15.91064-34.88379-9.0708-8.40332-21.26416-12.66406-36.24072-12.66406-11.28906,0-21.36816,2.7002-29.95898,8.02441-8.60547,5.34668-15.34424,13.09473-20.0293,23.0293-4.64209,9.86035-6.99561,21.43457-6.99561,34.40039v13.19238c0,19.79688,5.06689,35.86816,15.06055,47.77051,10.07666,11.97559,23.63672,18.04785,40.30273,18.04785,15.33398,0,27.82178-4.12012,37.11572-12.24414,9.30273-8.13281,14.90576-19.81055,16.65332-34.70801,.05762-.49414-.09863-.98926-.42871-1.36133-.33105-.37207-.80469-.58496-1.30225-.58496Z"/></g><g><path d="M558.55462,187.79877c-14.9176,0-26.28339-4.97254-34.57095-14.44404-8.52435-9.70829-12.54973-23.44196-12.78652-41.20102v-15.39119c0-18.23264,4.02539-32.67668,12.07615-43.09533,8.05077-10.41864,18.94299-15.62797,32.91344-15.62797,13.73366,0,23.91552,4.49896,31.01914,13.2601,7.34041,8.99792,10.89222,22.49481,11.129,40.72745v12.07616h-74.35123v7.10363c0,14.20725,3.07823,25.33626,8.99792,33.15025,6.15647,7.81399,14.91761,11.60259,26.04661,11.60259,12.31294,0,22.25801-4.49896,29.83521-13.49689l6.86684,8.52435c-8.28756,11.12901-20.6005,16.81191-37.17562,16.81191Zm-2.36787-117.68338c-9.94507,0-17.75905,3.55181-23.20516,10.65543s-8.52434,17.52228-8.99792,31.25595h61.32793v-3.31502c-.47358-25.80984-10.18186-38.59636-29.12485-38.59636Z"/><path d="M467.85636,28.44078v31.96631h21.31086v11.60259h-21.31086v83.11241c0,6.86684,.94715,11.83938,3.07823,15.1544,1.8943,3.31503,5.44611,5.20933,10.18186,5.20933,2.13109,0,5.20932-.47358,9.23471-1.18394l.23679,11.3658c-2.84145,1.42073-7.10362,2.13109-12.54973,2.13109-14.9176,0-22.73158-10.41865-22.96837-31.01916V72.00968h-19.41656v-11.60259h19.41656V28.44078h12.78652Z"/><path d="M413.05153,185.43089h-13.0233V60.40709h13.0233v125.0238Zm-14.9176-161.25229c0-2.60466,.71036-4.73575,2.36787-6.63005,1.42073-1.8943,3.55181-2.84146,6.15647-2.84146s4.73575,.94715,6.39326,2.84146c1.42072,1.8943,2.13109,4.02539,2.13109,6.63005s-.71036,4.97253-2.13109,6.63005c-1.65751,1.8943-3.7886,2.84146-6.39326,2.84146s-4.73575-.94715-6.15647-2.84146c-1.65751-1.65752-2.36787-4.02539-2.36787-6.63005Z"/><path d="M296.92081,60.40709l.23679,19.89015c3.7886-6.86683,8.52434-12.31295,14.20724-16.33834,5.91968-4.02538,12.31294-5.91968,19.65335-5.91968,21.78444,0,32.91344,14.44403,33.6238,43.5689v83.82278h-12.78651V103.02884c0-11.12902-2.13109-19.41658-5.91969-24.86269-3.7886-5.20932-9.94507-7.81399-18.23262-7.81399-6.63005,0-12.54973,2.36787-17.99584,7.5772-5.44611,4.97254-9.4715,11.83937-12.31294,20.60051v86.90102h-12.78652V60.40709h12.31294Z"/><path d="M179.44051,185.43089V72.00968h-17.28548v-11.60259h17.28548v-14.44403c.23679-12.78653,3.55181-22.7316,9.70828-29.83522,6.39326-7.10363,14.9176-10.65544,25.80982-10.65544,8.76113,0,17.75906,2.13109,26.99376,6.86683l-2.13109,12.07616c-7.81398-4.02539-15.86475-6.15647-23.91553-6.15647-15.15439,0-23.20516,9.23471-23.44195,27.70413v14.44403h23.91552v11.60259h-23.91552v113.42121h-13.0233Zm69.37869,0h-13.02331V60.40709h13.02331v125.0238Z"/><path d="M70.88704,60.40709l.23679,19.89015c3.7886-6.86683,8.52434-12.31295,14.20724-16.33834,5.91968-4.02538,12.31294-5.91968,19.65335-5.91968,21.78444,0,32.91344,14.44403,33.6238,43.5689v83.82278h-12.78651V103.02884c0-11.12902-2.13109-19.41658-5.91969-24.86269-3.7886-5.20932-9.94507-7.81399-18.23262-7.81399-6.63005,0-12.54973,2.36787-17.99584,7.5772-5.44611,4.97254-9.4715,11.83937-12.31294,20.60051v86.90102h-12.78652V60.40709h12.31294Z"/><path d="M19.2334,211.01593V23.26971c3.56549-2.22583,5.9502-6.17371,5.9502-10.67792C25.18359,5.64844,19.53516,0,12.5918,0S0,5.64844,0,12.5918c0,4.51385,2.39502,8.46875,5.97327,10.69196V211.00189c-3.57825,2.22321-5.97327,6.1781-5.97327,10.69196,0,6.94336,5.64844,12.59277,12.5918,12.59277s12.5918-5.64941,12.5918-12.59277c0-4.50421-2.3847-8.45209-5.9502-10.67792Z"/></g></svg>