<?xml version="1.0" encoding="UTF-8"?><svg id="a" xmlns="http://www.w3.org/2000/svg" viewBox="0 0 600 600"><path d="M60.57657,600c-17.25938,0-31.67032-5.78125-43.23282-17.34375S0,556.68281,0,539.42343v-108.17343c0-5.33624,1.79094-9.79531,5.37282-13.3772,3.58126-3.58189,8.0403-5.3728,13.37718-5.3728,5.33625,0,9.7953,1.79091,13.37718,5.3728,3.58187,3.58186,5.37282,8.04093,5.37282,13.3772v108.17345c0,5.76874,2.40376,11.05718,7.21125,15.86532,4.80812,4.80748,10.09656,7.21124,15.86532,7.21124h108.17343c5.33624,0,9.79531,1.79094,13.3772,5.37282,3.58189,3.58189,5.3728,8.04093,5.3728,13.37718,0,5.33688-1.79091,9.79593-5.3728,13.37718-3.58189,3.58187-8.04096,5.37282-13.3772,5.37282H60.57657Zm478.84688,0h-108.17345c-5.33627,0-9.79528-1.79094-13.37717-5.37282-3.58189-3.58126-5.37283-8.0403-5.37283-13.37718,0-5.33625,1.79094-9.7953,5.37283-13.37718,3.58189-3.58187,8.04096-5.37282,13.37717-5.37282h108.17345c5.76874,0,11.05722-2.40376,15.86529-7.21125,4.80755-4.80812,7.21127-10.09656,7.21127-15.86532v-108.17343c0-5.33624,1.79094-9.79531,5.37283-13.3772,3.58189-3.58189,8.04096-5.3728,13.37717-5.3728,5.33689,0,9.79591,1.79091,13.37717,5.3728,3.58189,3.58189,5.37283,8.04096,5.37283,13.3772v108.17345c0,17.25936-5.78127,31.67031-17.34375,43.2328-11.56248,11.5625-25.97345,17.34375-43.2328,17.34375ZM0,60.57655C0,43.3172,5.78125,28.90623,17.34375,17.34375,28.90625,5.78127,43.31719,0,60.57657,0h108.17343c5.33624,0,9.79531,1.79094,13.3772,5.37283,3.58189,3.58126,5.3728,8.04028,5.3728,13.37717,0,5.33632-1.79091,9.79528-5.3728,13.37717-3.58186,3.58183-8.04093,5.37283-13.3772,5.37283H60.57657c-5.76875,0-11.05718,2.40372-15.86532,7.21127-4.80749,4.80806-7.21125,10.09655-7.21125,15.86529v108.17345c0,5.33627-1.79094,9.79528-5.37282,13.37717-3.58189,3.58183-8.04093,5.37277-13.37718,5.37283-5.33688,0-9.79593-1.79094-13.37718-5.37283-3.58187-3.58189-5.37282-8.0409-5.37282-13.37717V60.57655Zm600,0v108.17345c0,5.33627-1.79094,9.79528-5.37283,13.37717-3.58126,3.58189-8.04028,5.37283-13.37717,5.37283-5.33632,0-9.79528-1.79094-13.37717-5.37283-3.58183-3.58189-5.37283-8.04096-5.37283-13.37717V60.57655c0-5.76874-2.40372-11.05722-7.21127-15.86529-4.80806-4.80755-10.09655-7.21127-15.86529-7.21127h-108.17345c-5.33627,0-9.79528-1.79094-13.37717-5.37283-3.58183-3.58189-5.37277-8.04096-5.37283-13.37717,0-5.33689,1.79094-9.79591,5.37283-13.37717,3.58189-3.58189,8.0409-5.37283,13.37717-5.37283h108.17345c17.25935,0,31.67032,5.78127,43.2328,17.34375s17.34375,25.97345,17.34375,43.2328ZM301.44187,495.43313c8.31751,0,15.32501-2.84875,21.02251-8.54625,5.6969-5.69687,8.54533-12.70406,8.54533-21.02157s-2.84843-15.3247-8.5453-21.02157c-5.69753-5.69687-12.705-8.5453-21.02251-8.5453-8.31691,0-15.32407,2.84843-21.02157,8.5453-5.6969,5.69687-8.54533,12.70406-8.54533,21.02157s2.84843,15.3247,8.5453,21.02157c5.69747,5.6975,12.70469,8.54625,21.02157,8.54625Zm0-355.96215c19.13498,0,35.6375,6.08185,49.50751,18.2456,13.87001,12.16312,20.80502,27.49969,20.80502,46.00971,0,13.41316-3.9303,25.62469-11.79096,36.63471-7.86003,11.00939-16.86218,20.96123-27.00657,29.85563-16.25001,14.8556-28.35345,28.68968-36.3103,41.5022-7.95688,12.81249-12.56029,26.83906-13.8103,42.0797-.62499,4.90374,.81748,9.07439,4.3275,12.51188,3.50939,3.43752,7.78811,5.15625,12.83624,5.15625,4.90376,0,9.14658-1.6828,12.72843-5.04845,3.58189-3.36502,5.75752-7.57155,6.52688-12.61969,1.73063-10.62501,5.48063-20.12032,11.25-28.48595,5.76874-8.36563,14.8312-18.72625,27.1875-31.08187,18.98998-18.99061,32.0787-34.96408,39.26622-47.92033,7.18752-12.95689,10.78125-27.36814,10.78125-43.23378,0-28.94188-9.78373-52.59567-29.35123-70.96127-19.56688-18.36565-44.73501-27.54845-75.50437-27.54845-21.29811,0-40.78125,4.81968-58.44938,14.45904-17.66876,9.63936-31.81561,23.64183-42.44061,42.00748-2.3075,4.13504-2.58376,8.54628-.82875,13.23378s5.0122,7.87251,9.77157,9.55502c4.27875,1.68251,8.83407,1.80285,13.66593,.36095,4.83187-1.44247,8.78623-4.15907,11.86312-8.14968,8.31751-10.67316,17.84875-19.43504,28.59375-26.28565,10.74497-6.85123,22.87216-10.27685,36.38157-10.27685Z"/></svg>