<?xml version="1.0" encoding="UTF-8"?><svg id="a" xmlns="http://www.w3.org/2000/svg" viewBox="0 0 600 600.00001"><path d="M255.18227,367.77413l-73.36125-73.36046c-4.37214-4.37267-9.86792-6.6095-16.48741-6.71054-6.6195-.10158-12.21661,2.13528-16.79137,6.71054-4.57476,4.57473-6.86211,10.12109-6.86211,16.63898s2.28735,12.06422,6.86211,16.63898l86.65997,86.65997c5.70845,5.70845,12.36845,8.56266,19.98006,8.56266,7.61109,0,14.27084-2.85421,19.97927-8.56266l175.68835-175.68833c4.37267-4.37214,6.6095-9.86792,6.71054-16.48739,.10158-6.61952-2.13526-12.21664-6.71054-16.79135-4.57476-4.57476-10.12109-6.86214-16.63898-6.86214s-12.06422,2.28738-16.63898,6.86214l-162.38966,162.38958Zm44.87064,232.22588c-41.49275,0-80.49391-7.87371-117.00347-23.62111-36.5101-15.74741-68.26861-37.11852-95.27552-64.11333-27.00744-26.99532-48.38829-58.73988-64.14254-95.23367C7.87713,380.53862,0,341.54563,0,300.0529c0-41.49275,7.87371-80.49388,23.62111-117.00347,15.74741-36.51012,37.11852-68.2686,64.11332-95.27552,26.99533-27.00745,58.73988-48.38825,95.23367-64.14254C219.46136,7.87717,258.45435,0,299.9471,0s80.49388,7.8737,117.00347,23.6211c36.51012,15.7474,68.26864,37.11856,95.27552,64.11334,27.00745,26.99536,48.3883,58.73991,64.14254,95.23369,15.75424,36.49326,23.63136,75.48625,23.63136,116.979s-7.8737,80.49391-23.6211,117.00347c-15.7474,36.5101-37.11852,68.26861-64.11334,95.27552-26.99531,27.00744-58.73991,48.38829-95.23365,64.14254-36.49326,15.75425-75.48625,23.63138-116.979,23.63134Zm-.05288-47.36775c70.52649,0,130.2635-24.47375,179.211-73.42125,48.9475-48.9475,73.42125-108.68449,73.42125-179.211s-24.47375-130.2635-73.42125-179.211-108.68451-73.42125-179.211-73.42125-130.2635,24.47375-179.211,73.42125c-48.9475,48.9475-73.42125,108.68451-73.42125,179.211s24.47375,130.2635,73.42125,179.211c48.9475,48.9475,108.68449,73.42125,179.211,73.42125Z"/></svg>