<?xml version="1.0" encoding="UTF-8"?><svg id="a" xmlns="http://www.w3.org/2000/svg" viewBox="0 0 600 537.43504"><path d="M135,457.09648c-37.92301,0-69.90375-13.01926-95.94225-39.05775C13.01925,392.00022,0,360.01948,0,322.09648c0-36.57699,12.2595-67.55775,36.7785-92.94225,24.5195-25.38448,53.2215-39.05775,86.106-41.01977,.346-7.4615,2.423-16.72101,6.231-27.77852,3.8075-11.05751,8.192-20.567,13.1535-28.52852L36.46125,26.01974c-2.8075-2.80801-4.3075-6.25031-4.5-10.32674-.1925-4.07698,1.3075-7.71176,4.5-10.90425,3.19249-3.19254,6.731-4.78876,10.61551-4.78876s7.42299,1.59622,10.61551,4.78876l506.53877,506.53876c2.80746,2.80749,4.33621,6.221,4.58624,10.2405,.24998,4.019-1.32074,7.724-4.71227,11.115-3.10849,3.109-6.57619,4.69251-10.40323,4.7505-3.82704,.0575-7.39421-1.51-10.70174-4.7025l-74.6543-75.63453H135Zm0-30H437.19223L164.53876,154.44296c-4.46201,8.19196-8.0005,17.86501-10.61549,29.01901-2.6155,11.15396-3.92326,22.36551-3.92326,33.63451h-15c-29,0-53.75,10.24999-74.25,30.75s-30.75,45.25001-30.75,74.25,10.25,53.74999,30.75,74.25c20.5,20.5,45.25,30.75,74.25,30.75Zm432.23099,1.731l-21.57747-21.231c7.73099-7.38451,13.72147-15.64252,17.97148-24.77401,4.25002-9.13152,6.375-19.3735,6.375-30.72599,0-21-7.25002-38.74999-21.75-53.25s-32.25-21.75-53.25-21.75h-45v-60c0-41.49998-14.625-76.875-43.875-106.125s-64.62502-43.875-106.125-43.875c-13.5,0-26.50001,1.62502-39,4.875s-24.49999,8.37502-36,15.375l-21.57676-22.15425c17.50001-10.46146,33.62501-17.75949,48.375-21.89401,14.75002-4.13448,30.81725-6.20174,48.20176-6.20174,50.14302,0,92.67879,17.46423,127.60725,52.39275,34.92851,34.92847,52.39275,77.46423,52.39275,127.60725v30h18.46124c28.73103,.92301,52.83696,11.47101,72.31801,31.64401,19.4805,20.173,29.22075,44.62498,29.22075,73.35599,0,13.73101-2.49998,27.04825-7.5,39.95176-5.00002,12.90401-13.42296,25.16375-25.26901,36.77924Z"/></svg>