<?xml version="1.0" encoding="UTF-8"?><svg id="a" xmlns="http://www.w3.org/2000/svg" viewBox="0 0 600 600"><path d="M285,265.8022l-52.96124,52.788c-2.71149,2.80799-6.10101,4.212-10.16851,4.212s-7.56276-1.4615-10.48574-4.38451c-3.19249-2.80799-4.69249-6.3465-4.5-10.61549,.19251-4.26949,1.69251-7.80801,4.5-10.61549l71.65425-71.65427c4.846-4.84602,10.49975-7.26901,16.96124-7.26901s12.11524,2.42299,16.96124,7.26901l71.65425,71.65425c2.80746,2.80751,4.33621,6.29649,4.58624,10.467,.24998,4.1705-1.27876,7.77225-4.58624,10.80526-2.80751,2.78-6.31723,4.10275-10.52925,3.96824-4.21147-.13451-7.77873-1.60577-10.70174-4.41376l-52.38451-52.21122v174.11552c0,4.61499,1.923,8.84575,5.76899,12.69225,3.84652,3.84598,8.07726,5.76899,12.69225,5.76899h161.53876c21,0,38.75002-7.25,53.25-21.75,14.49998-14.50001,21.75-32.25,21.75-53.25s-7.25002-38.74999-21.75-53.25-32.25-21.75-53.25-21.75h-45v-60c0-41.49998-14.625-76.875-43.875-106.125s-64.62502-43.875-106.125-43.875-76.875,14.625-106.125,43.875-43.875,64.62502-43.875,106.125h-16.1535c-27.84651,0-52.11574,10.24999-72.80775,30.75-20.69251,20.50001-31.03876,45.25001-31.03876,74.25s10.25,53.74999,30.75,74.25c20.5,20.5,45.25,30.75,74.25,30.75h60c4.24999,0,7.81249,1.4395,10.6875,4.3185,2.87501,2.879,4.3125,6.44624,4.3125,10.70175,0,4.256-1.43749,7.8165-4.3125,10.6815-2.87501,2.8655-6.43751,4.29825-10.6875,4.29825h-60c-37.423,0-69.27876-13.01426-95.56725-39.04276C13.14425,423.3077,0,391.49495,0,353.89795c0-35.53848,12.23075-66.34625,36.69225-92.42324,24.46151-26.07651,53.19225-40.09575,86.19225-42.05777,6.731-43.69199,26.82726-79.78798,60.28873-108.28798,33.46149-28.5,72.40375-42.75,116.82676-42.75,50.14302,0,92.67879,17.46423,127.60725,52.39275,34.92851,34.92847,52.39275,77.46423,52.39275,127.60725v30h18.46124c28.73103,.92301,52.83696,11.47101,72.31801,31.64401,19.4805,20.173,29.22075,44.62498,29.22075,73.35599,0,29.42301-9.95178,54.27876-29.85526,74.56725-19.90402,20.28849-44.56773,30.43275-73.99123,30.43275h-162.69228c-13.8075,0-25.33624-4.625-34.58624-13.875-9.25001-9.25-13.875-20.77875-13.875-34.58624v-174.11552Z"/></svg>