<?xml version="1.0" encoding="UTF-8"?><svg id="a" xmlns="http://www.w3.org/2000/svg" viewBox="0 0 600 579.02182"><path d="M119.75043,579.02182c-13.83475,0-25.29438-8.19837-28.82691-20.50798l-17.86762-52.55395-55.37516-18.83213-2.00739-1.33826c-10.10931-6.71543-15.67335-16.1315-15.67335-26.52413,0-13.82872,8.19234-25.29438,20.48989-28.82691l52.56601-17.87968,18.83213-55.38721,1.35032-2.02548c9.08452-13.59965,20.50798-15.63718,26.51208-15.63718,13.8468,0,25.30041,8.19837,28.82691,20.49592l17.86762,52.55395,52.56601,17.87968c12.29755,3.53253,20.49592,14.99819,20.49592,28.82691,0,13.84077-8.19837,25.29438-20.50798,28.82691l-52.55395,17.86762-18.83213,55.38721-1.33826,2.01342c-9.08452,13.62376-20.51401,15.66129-26.52413,15.66129Zm-68.98083-119.76852l51.4749,17.50593,17.50593,51.48093,17.50593-51.48093,51.4749-17.50593-51.4749-17.49387-17.50593-51.48093-17.50593,51.48093-51.4749,17.49387Zm345.52506,62.9707c-13.90106,0-25.40289-8.27071-28.86308-20.66471l-37.70044-116.47711-119.3586-38.61673-2.14002-1.43471c-13.6117-9.07849-15.64321-20.50798-15.64321-26.51208,0-13.90106,8.27071-25.40289,20.67074-28.86911l116.47108-37.68235,38.62878-119.35257,1.4106-2.12193c6.71543-10.10931,16.1315-15.67938,26.52413-15.67938,14.1663,0,25.84897,8.60226,29.08009,21.41221l37.48342,115.73564,117.05582,37.88128c11.4536,3.8038,20.086,16.12547,20.086,28.6762,0,14.1663-8.59623,25.84897-21.40015,29.06804l-115.74167,37.48342-38.61673,119.38271-1.43471,2.13399c-9.07849,13.6117-20.50798,15.63718-26.51208,15.63718Zm-151.95917-203.70534l114.81333,37.14584,37.14584,114.81333,37.14584-114.81333,114.81333-37.14584-114.81333-37.14584-37.14584-114.81333-37.14584,114.81333-114.81333,37.14584Zm-78.90327-9.87421c-13.85283,0-25.31849-8.21042-28.83294-20.52606l-26.5181-78.44512-78.96355-26.69292c-12.1589-4.08713-20.00764-15.32371-20.00764-28.65812,0-13.8468,8.2044-25.30643,20.52003-28.83294l78.45115-26.5181,27.47659-81.27838,1.34429-2.01945C147.96849,2.03754,159.41607,0,165.43222,0c13.84077,0,25.30643,8.2044,28.83294,20.52003l26.5181,78.45115,81.28441,27.47659,2.02548,1.35032c13.62979,9.07849,15.66732,20.51401,15.66732,26.52413,0,13.84077-8.21042,25.30643-20.52606,28.83294l-78.45115,26.5181-27.47659,81.28441-1.35635,2.03151c-9.07849,13.61773-20.51401,15.65527-26.5181,15.65527ZM62.00016,154.32223l77.29373,26.12627,26.13833,77.30579,26.12627-77.30579,77.30579-26.12627-77.30579-26.12627-26.12627-77.30579-26.13833,77.30579-77.29373,26.12627Z"/></svg>