<?xml version="1.0" encoding="UTF-8"?><svg id="a" xmlns="http://www.w3.org/2000/svg" viewBox="0 0 599.99998 600"><path d="M300.0529,600c-41.49275,0-80.4939-7.87371-117.00347-23.62112-36.5101-15.74741-68.26861-37.11851-95.27552-64.11333-27.00744-26.99532-48.38829-58.73988-64.14254-95.23367C7.87713,380.5386,0,341.54562,0,300.05289c0-41.49275,7.87371-80.49388,23.62111-117.00347,15.74741-36.51012,37.11851-68.26859,64.11332-95.27552,26.99533-27.00745,58.73988-48.38825,95.23367-64.14254C219.46135,7.87717,258.45434,0,299.94709,0s80.49388,7.8737,117.00347,23.6211c36.51012,15.7474,68.26864,37.11856,95.27552,64.11334,27.00745,26.99536,48.3883,58.73991,64.14254,95.23369,15.75424,36.49326,23.63136,75.48624,23.63136,116.97899s-7.8737,80.4939-23.6211,117.00347c-15.7474,36.5101-37.11851,68.26861-64.11334,95.27552-26.99531,27.00744-58.73991,48.38829-95.23364,64.14254-36.49326,15.75425-75.48624,23.63138-116.97899,23.63135Zm-.05288-47.36776c29.62794,0,58.15854-5.01027,85.59181-15.03083,27.43322-10.02003,52.50616-24.52401,75.21886-43.51196L105.91057,139.18933c-18.78532,22.7127-33.23876,47.78564-43.36038,75.21886-10.1216,27.43322-15.18241,55.96383-15.18241,85.59181,0,70.52651,24.47375,130.2635,73.42124,179.21099,48.9475,48.9475,108.68449,73.42124,179.21099,73.42124Zm194.08946-91.82156c18.98799-22.71268,33.49196-47.78564,43.51195-75.21889,10.02052-27.43322,15.03083-55.96383,15.03083-85.59179,0-70.52648-24.47375-130.2635-73.42124-179.21099s-108.68451-73.42124-179.21099-73.42124c-29.69901,0-58.29804,4.95947-85.79706,14.87847-27.49904,9.91948-52.50356,24.47428-75.01361,43.66431L494.08948,460.81068Z"/></svg>