<?xml version="1.0" encoding="UTF-8"?><svg id="a" xmlns="http://www.w3.org/2000/svg" viewBox="0 0 600 600"><path d="M410.40751,253.84583c10.36942,0,19.1333-3.62915,26.29166-10.8875,7.1578-7.25886,10.73664-16.07305,10.73664-26.44252s-3.6292-19.13335-10.8875-26.29166c-7.25891-7.15775-16.07305-10.73664-26.44252-10.73664s-19.13335,3.62915-26.29166,10.8875c-7.1583,7.25886-10.73751,16.07305-10.73751,26.44252s3.62946,19.13335,10.88832,26.29166c7.25886,7.15775,16.07305,10.73664,26.44257,10.73664Zm-220.51333,0c10.36947,0,19.13333-3.62915,26.29166-10.8875,7.15836-7.25886,10.73751-16.07305,10.73751-26.44252s-3.62946-19.13335-10.88834-26.29166c-7.25889-7.15775-16.07305-10.73664-26.44249-10.73664s-19.13333,3.62915-26.29166,10.8875c-7.15777,7.25886-10.73667,16.07305-10.73667,26.44252s3.62918,19.13335,10.8875,26.29166c7.25889,7.15775,16.07305,10.73664,26.44249,10.73664Zm110.21749,346.15417c-41.48499,0-80.48777-7.87195-117.00834-23.61584-36.52056-15.74445-68.2886-37.11166-95.30416-64.10166-27.01501-26.99001-48.40195-58.72807-64.16083-95.21417C7.87945,380.58167,0,341.59609,0,300.11167s7.87195-80.4878,23.61584-117.00834c15.74445-36.52054,37.11166-68.28863,64.10166-95.30416,26.99001-27.01502,58.72807-48.40195,95.21417-64.16082C219.41833,7.87944,258.40391,0,299.88833,0s80.4878,7.87191,117.00834,23.61582c36.52054,15.74448,68.28863,37.11171,95.30416,64.10166,27.01502,26.99,48.40195,58.72808,64.16082,95.21418,15.75892,36.48666,23.63836,75.47221,23.63836,116.95666s-7.87191,80.48777-23.61582,117.00834c-15.74448,36.52056-37.11171,68.2886-64.10166,95.30416-26.99,27.01501-58.72808,48.40195-95.21418,64.16083-36.48666,15.7589-75.47221,23.63834-116.95666,23.63834Zm-.11167-33.33333c74.44443,0,137.5-25.83333,189.16667-77.5,51.66667-51.66667,77.5-114.72221,77.5-189.16667s-25.83333-137.5-77.5-189.16667c-51.66667-51.66667-114.72224-77.5-189.16667-77.5S162.5,59.16667,110.83333,110.83333,33.33333,225.55557,33.33333,300s25.83333,137.5,77.5,189.16667c51.66667,51.66667,114.72221,77.5,189.16667,77.5Zm0-103.84583c27.61444,0,53.0864-6.38888,76.41581-19.16667,23.32942-12.77779,42.43718-30.10694,57.32335-51.98751,2.97719-5.47,3.05552-11.00416,.23499-16.6025-2.82054-5.59832-7.47859-8.3975-13.97415-8.3975H180c-6.49554,0-11.15359,2.79917-13.97418,8.3975-2.82056,5.59835-2.74221,11.13251,.23501,16.6025,14.88612,21.88057,34.11278,39.20972,57.68,51.98751,23.56778,12.77779,48.92082,19.16667,76.05916,19.16667Z"/></svg>