<?xml version="1.0" encoding="UTF-8"?><svg id="a" xmlns="http://www.w3.org/2000/svg" viewBox="0 0 600 600.00001"><path d="M407.56133,262.34756c11.49057,0,21.23403-4.02187,29.23036-12.06557,7.9958-8.04317,11.99373-17.81028,11.99373-29.30139s-4.02187-21.23374-12.06557-29.22954c-8.04375-7.9958-17.81086-11.99373-29.30139-11.99373s-21.23374,4.02187-29.22954,12.06557c-7.99633,8.04317-11.9945,17.81028-11.9945,29.30139s4.02187,21.23374,12.06557,29.22954c8.04375,7.9958,17.81086,11.99373,29.30134,11.99373Zm-214.97978,0c11.49057,0,21.23374-4.02187,29.22954-12.06557,7.99636-8.04317,11.99448-17.81028,11.9945-29.30139-.00002-11.49057-4.02185-21.23374-12.06555-29.22954-8.0437-7.9958-17.81084-11.99373-29.30139-11.99373s-21.234,4.02187-29.23034,12.06557c-7.9958,8.04317-11.9937,17.81028-11.9937,29.30139s4.02185,21.23374,12.06555,29.22954c8.0437,7.9958,17.81084,11.99373,29.30139,11.99373Zm107.47134,337.65246c-41.49275,0-80.49388-7.87371-117.00345-23.62111-36.5101-15.74741-68.26861-37.11852-95.27552-64.11333-27.00744-26.99532-48.38829-58.73988-64.14254-95.23367C7.87713,380.53862,0,341.54563,0,300.0529c0-41.49275,7.87371-80.49388,23.62111-117.00347,15.74741-36.51012,37.11852-68.2686,64.11332-95.27552,26.99532-27.00745,58.73988-48.38825,95.23367-64.14254C219.46138,7.87717,258.45437,0,299.9471,0s80.49388,7.8737,117.00347,23.6211c36.51012,15.7474,68.2686,37.11856,95.27552,64.11334,27.00745,26.99536,48.38825,58.73991,64.14254,95.23369,15.7542,36.49326,23.63136,75.48625,23.63136,116.979s-7.8737,80.49391-23.6211,117.00347c-15.7474,36.5101-37.11856,68.26861-64.11334,95.27552-26.99536,27.00744-58.73991,48.38829-95.23369,64.14254-36.49326,15.75425-75.48625,23.63138-116.97897,23.63134Zm-.05291-47.36775c70.52649,0,130.2635-24.47375,179.211-73.42125,48.9475-48.9475,73.42125-108.68449,73.42125-179.211s-24.47375-130.2635-73.42125-179.211c-48.9475-48.9475-108.68451-73.42125-179.211-73.42125s-130.2635,24.47375-179.211,73.42125c-48.9475,48.9475-73.42125,108.68451-73.42125,179.211s24.47375,130.2635,73.42125,179.211,108.68449,73.42125,179.211,73.42125Zm0-88.66523c28.34379,0,54.48833-6.71028,78.43363-20.13084,23.9453-13.42109,43.39115-31.62955,58.33751-54.62542,2.98896-5.74895,2.89452-11.52845-.28343-17.33847-3.17843-5.80949-8.14817-8.71423-14.90921-8.71423H178.42151c-6.76107,0-11.73083,2.90473-14.90926,8.71423-3.1779,5.81002-3.27239,11.58952-.28343,17.33847,14.94636,22.99587,34.51432,41.20433,58.70384,54.62542,24.19005,13.42056,50.21249,20.13084,78.06732,20.13084Z"/></svg>