<?xml version="1.0" encoding="UTF-8"?><svg id="a" xmlns="http://www.w3.org/2000/svg" viewBox="0 0 600 600.00001"><path d="M407.56133,262.34756c11.49057,0,21.23403-4.02187,29.23036-12.06557,7.9958-8.04317,11.99373-17.81028,11.99373-29.30139s-4.02187-21.23374-12.06557-29.22954c-8.04375-7.9958-17.81086-11.99373-29.30139-11.99373s-21.23374,4.02187-29.22954,12.06557c-7.99633,8.04317-11.9945,17.81028-11.9945,29.30139s4.02187,21.23374,12.06557,29.22954c8.04375,7.9958,17.81086,11.99373,29.30134,11.99373Zm-214.97978,0c11.49057,0,21.23374-4.02187,29.22954-12.06557,7.99636-8.04317,11.99448-17.81028,11.9945-29.30139-.00002-11.49057-4.02185-21.23374-12.06555-29.22954-8.0437-7.9958-17.81084-11.99373-29.30139-11.99373s-21.234,4.02187-29.23034,12.06557c-7.9958,8.04317-11.9937,17.81028-11.9937,29.30139s4.02185,21.23374,12.06555,29.22954c8.0437,7.9958,17.81084,11.99373,29.30139,11.99373Zm107.47134,337.65246c-41.49275,0-80.49388-7.87371-117.00345-23.62111-36.5101-15.74741-68.26861-37.11852-95.27552-64.11333-27.00744-26.99532-48.38829-58.73988-64.14254-95.23367C7.87713,380.53862,0,341.54563,0,300.0529c0-41.49275,7.87371-80.49388,23.62111-117.00347,15.74741-36.51012,37.11852-68.2686,64.11332-95.27552,26.99532-27.00745,58.73988-48.38825,95.23367-64.14254C219.46138,7.87717,258.45437,0,299.9471,0s80.49388,7.8737,117.00347,23.6211c36.51012,15.7474,68.2686,37.11856,95.27552,64.11334,27.00745,26.99536,48.38825,58.73991,64.14254,95.23369,15.7542,36.49326,23.63136,75.48625,23.63136,116.979s-7.8737,80.49391-23.6211,117.00347c-15.7474,36.5101-37.11856,68.26861-64.11334,95.27552-26.99536,27.00744-58.73991,48.38829-95.23369,64.14254-36.49326,15.75425-75.48625,23.63138-116.97897,23.63134Zm-.05291-47.36775c70.52649,0,130.2635-24.47375,179.211-73.42125,48.9475-48.9475,73.42125-108.68449,73.42125-179.211s-24.47375-130.2635-73.42125-179.211c-48.9475-48.9475-108.68451-73.42125-179.211-73.42125s-130.2635,24.47375-179.211,73.42125c-48.9475,48.9475-73.42125,108.68451-73.42125,179.211s24.47375,130.2635,73.42125,179.211,108.68449,73.42125,179.211,73.42125Zm0-205.2637c-27.97587,0-54.10935,6.71054-78.40047,20.13163-24.29163,13.42109-43.99484,31.888-59.10964,55.40068-3.02265,5.75844-2.86896,11.41083,.46107,16.95715,3.33002,5.54633,8.32477,8.31949,14.98426,8.31949h243.3401c6.65952,0,11.65426-2.77316,14.98423-8.31949,3.32997-5.54633,3.48369-11.19871,.46104-16.95715-15.11477-23.51268-34.73505-41.97959-58.8609-55.40068-24.12537-13.42109-50.07856-20.13163-77.85969-20.13163Z"/></svg>