<?xml version="1.0" encoding="UTF-8"?><svg id="a" xmlns="http://www.w3.org/2000/svg" viewBox="0 0 600 600"><path d="M410.40751,253.84583c10.36942,0,19.1333-3.62915,26.29166-10.8875,7.1578-7.25886,10.73664-16.07305,10.73664-26.44252s-3.6292-19.13335-10.8875-26.29166c-7.25891-7.15775-16.07305-10.73664-26.44252-10.73664s-19.13335,3.62915-26.29166,10.8875c-7.1583,7.25886-10.73751,16.07305-10.73751,26.44252s3.62946,19.13335,10.88832,26.29166c7.25886,7.15775,16.07305,10.73664,26.44257,10.73664Zm-220.51333,0c10.36947,0,19.13333-3.62915,26.29166-10.8875,7.15836-7.25886,10.73751-16.07305,10.73751-26.44252s-3.62946-19.13335-10.88834-26.29166c-7.25889-7.15775-16.07305-10.73664-26.44249-10.73664s-19.13333,3.62915-26.29166,10.8875c-7.15777,7.25886-10.73667,16.07305-10.73667,26.44252s3.62918,19.13335,10.8875,26.29166c7.25889,7.15775,16.07305,10.73664,26.44249,10.73664Zm110.21749,346.15417c-41.48499,0-80.48777-7.87195-117.00834-23.61584-36.52056-15.74445-68.2886-37.11166-95.30416-64.10166-27.01501-26.99001-48.40195-58.72807-64.16083-95.21417C7.87945,380.58167,0,341.59609,0,300.11167s7.87195-80.4878,23.61584-117.00834c15.74445-36.52054,37.11166-68.28863,64.10166-95.30416,26.99001-27.01502,58.72807-48.40195,95.21417-64.16082C219.41833,7.87944,258.40391,0,299.88833,0s80.4878,7.87191,117.00834,23.61582c36.52054,15.74448,68.28863,37.11171,95.30416,64.10166,27.01502,26.99,48.40195,58.72808,64.16082,95.21418,15.75892,36.48666,23.63836,75.47221,23.63836,116.95666s-7.87191,80.48777-23.61582,117.00834c-15.74448,36.52056-37.11171,68.2886-64.10166,95.30416-26.99,27.01501-58.72808,48.40195-95.21418,64.16083-36.48666,15.7589-75.47221,23.63834-116.95666,23.63834Zm-.11167-33.33333c74.44443,0,137.5-25.83333,189.16667-77.5,51.66667-51.66667,77.5-114.72221,77.5-189.16667s-25.83333-137.5-77.5-189.16667c-51.66667-51.66667-114.72224-77.5-189.16667-77.5S162.5,59.16667,110.83333,110.83333,33.33333,225.55557,33.33333,300s25.83333,137.5,77.5,189.16667c51.66667,51.66667,114.72221,77.5,189.16667,77.5Zm0-216.66667c-27.39332,0-52.84192,6.38888-76.34583,19.16667-23.50444,12.77779-42.87778,30.37473-58.12002,52.79083-3.04832,5.48999-3.00194,10.89526,.13916,16.21582,3.14056,5.32056,7.85194,7.98083,14.13417,7.98083h239.55165c6.2822,0,10.9936-2.66027,14.13417-7.98083,3.14107-5.32056,3.18746-10.72584,.13916-16.21582-15.24221-22.4161-34.57916-40.01305-58.01081-52.79083-23.43221-12.77779-48.63942-19.16667-75.62164-19.16667Z"/></svg>