<?xml version="1.0" encoding="UTF-8"?><svg id="a" xmlns="http://www.w3.org/2000/svg" viewBox="0 0 600 600"><path d="M412.5,435.28813l-44.13437-44.13437c-2.34001-2.33957-5.12856-3.50937-8.36563-3.50937s-6.02562,1.1698-8.36563,3.50937c-2.33959,2.33957-3.50937,5.235-3.50937,8.68624,0,3.45085,1.16978,6.29272,3.50937,8.52562l59.23126,59.71125c4.03835,4.03874,8.74981,6.05812,14.13437,6.05812s10.09602-2.01938,14.13437-6.05812l59.71188-59.71125c2.33955-2.23293,3.50937-5.07481,3.50937-8.52562,0-3.45123-1.16982-6.34666-3.50937-8.68626-2.33959-2.33959-5.23499-3.50939-8.68626-3.50937-3.45081,0-6.29269,1.1698-8.52562,3.50937l-44.13437,44.13439v-109.66313c0-3.54166-1.19961-6.51041-3.59875-8.90625-2.39876-2.39584-5.37148-3.59375-8.91811-3.59375s-6.51375,1.19791-8.90125,3.59375c-2.38792,2.39584-3.58189,5.36459-3.58189,8.90625v109.66313Zm-62.5,102.21188h150c3.54168,0,6.51043,1.19958,8.90625,3.59875,2.39582,2.39917,3.59375,5.37187,3.59375,8.91813s-1.19793,6.51333-3.59375,8.90125c-2.39582,2.38792-5.36457,3.58187-8.90625,3.58187h-150c-3.54168,0-6.51043-1.19958-8.90625-3.59875-2.39582-2.39917-3.59375-5.37188-3.59375-8.91813s1.19793-6.51333,3.59375-8.90125c2.39582-2.38791,5.36457-3.58187,8.90625-3.58187Z"/><path d="M127.88437,519.2481c-11.50624,0-21.11354-3.85417-28.82187-11.5625-7.70833-7.70833-11.5625-17.31563-11.5625-28.82188V109.63247c0-11.50623,3.85417-21.11355,11.5625-28.82187,7.70833-7.70832,17.31563-11.5625,28.82187-11.5625h180.33688c5.38456,0,10.61684,1.08978,15.69687,3.26939,5.07999,2.17918,9.43104,5.07977,13.05313,8.70186l88.55751,88.55751c3.62209,3.62209,6.52267,7.97314,8.70186,13.05313,2.1796,5.07996,3.26939,10.31227,3.26939,15.69687v42.72125c0,3.55749-1.19396,6.53021-3.58189,8.91813-2.3875,2.38792-5.36018,3.58187-8.91811,3.58187-3.55755,0-6.53019-1.19394-8.91811-3.58187-2.38789-2.38791-3.58189-5.36062-3.58189-8.91813v-47h-79.80812c-5.80124,0-10.61687-1.91502-14.44687-5.74501-3.82999-3.82999-5.74501-8.64559-5.74501-14.44687V94.2481H127.88437c-3.84583,0-7.37145,1.60248-10.57688,4.80751-3.20498,3.20538-4.80749,6.73103-4.80749,10.57686V478.86373c0,3.84583,1.60251,7.37145,4.8075,10.57688,3.20541,3.20499,6.73104,4.80749,10.57687,4.80749h137.61563c3.55751,0,6.53019,1.19396,8.91811,3.58188,2.38789,2.38792,3.58185,5.36062,3.58189,8.91812,0,3.55792-1.19396,6.53062-3.58189,8.91812-2.38792,2.38791-5.3606,3.58188-8.91811,3.58188H127.88437Zm-15.38437-25v0Z"/></svg>