<?xml version="1.0" encoding="UTF-8"?><svg id="a" xmlns="http://www.w3.org/2000/svg" viewBox="0 0 600 600"><path d="M433.46965,445.25731l-53.6858-53.6858c-2.84643-2.8459-6.23846-4.26886-10.1761-4.26886s-7.32967,1.42296-10.1761,4.26886c-2.84592,2.8459-4.26886,6.36795-4.26886,10.56609,0,4.19767,1.42294,7.65458,4.26886,10.37071l72.04991,72.63378c4.91232,4.9128,10.64342,7.3692,17.19329,7.3692s12.28097-2.4564,17.19329-7.3692l72.63454-72.63378c2.84587-2.71618,4.26886-6.17308,4.26886-10.37071,0-4.19814-1.42298-7.72019-4.26886-10.56611-2.84592-2.84592-6.36793-4.26888-10.56611-4.26886-4.19763,0-7.65453,1.42296-10.37071,4.26886l-53.6858,53.68582v-133.39609c0-4.30814-1.45922-7.91937-4.37758-10.83371-2.91789-2.91434-6.53395-4.3715-10.84815-4.3715s-7.92343,1.45716-10.82764,4.3715c-2.90471,2.91434-4.35707,6.52558-4.35707,10.83371v133.39609Zm-76.02606,124.33226h182.46255c4.30816,0,7.9194,1.45919,10.83371,4.37758,2.91432,2.91839,4.3715,6.53444,4.3715,10.84816s-1.45718,7.92293-4.3715,10.82763c-2.91432,2.9047-6.52555,4.35705-10.83371,4.35705h-182.46255c-4.30816,0-7.9194-1.45919-10.83371-4.37758-2.91432-2.91839-4.3715-6.53444-4.3715-10.84816s1.45718-7.92293,4.3715-10.82763c2.91432-2.9047,6.52555-4.35705,10.83371-4.35705Z"/><path d="M87.25836,547.38765c-13.99639,0-25.68287-4.68827-35.05941-14.06482-9.37654-9.37654-14.06482-21.06302-14.06482-35.05942V49.12423c0-13.99638,4.68828-25.68288,14.06482-35.05941C61.57549,4.68829,73.26197,0,87.25836,0h219.36484c6.54987,0,12.9145,1.32563,19.09394,3.97694,6.17939,2.6508,11.47207,6.17911,15.87805,10.58509l107.72286,107.72286c4.40598,4.40598,7.93429,9.69866,10.58509,15.87805,2.65131,6.17934,3.97694,12.54402,3.97694,19.09394v51.96685c0,4.32739-1.45236,7.94346-4.35707,10.84817-2.9042,2.90471-6.52022,4.35704-10.84815,4.35704-4.32746,0-7.94343-1.45233-10.84815-4.35704-2.90467-2.90469-4.35707-6.52075-4.35707-10.84817v-57.1716h-97.07996c-7.05673,0-12.91455-2.32946-17.57342-6.98833-4.65887-4.65887-6.98833-10.51664-6.98833-17.57342V30.41043H87.25836c-4.67813,0-8.96676,1.94928-12.86589,5.84794-3.8986,3.89907-5.84791,8.18774-5.84791,12.86587V498.26342c0,4.67813,1.94932,8.96676,5.84793,12.86589,3.89912,3.89861,8.18776,5.84791,12.86588,5.84791H254.65635c4.32742,0,7.94343,1.45236,10.84815,4.35706,2.90467,2.90471,4.35702,6.52075,4.35707,10.84816,0,4.32791-1.45236,7.94396-4.35707,10.84816-2.90471,2.9047-6.52073,4.35706-10.84815,4.35706H87.25836Zm-18.71381-30.41043v0Z"/></svg>