<?xml version="1.0" encoding="UTF-8"?><svg id="a" xmlns="http://www.w3.org/2000/svg" viewBox="0 0 600 600"><path d="M419.44719,449.58498v61.39376c0,3.55792-1.19396,6.53083-3.58189,8.91875-2.3875,2.3875-5.36018,3.58125-8.91811,3.58125s-6.53061-1.19375-8.91811-3.58125c-2.38792-2.38792-3.58189-5.36084-3.58189-8.91876v-84.03813c0-5.80126,1.91498-10.61708,5.74501-14.4475,3.83038-3.82999,8.64628-5.74499,14.44748-5.74499h84.03813c3.55793,0,6.53084,1.19394,8.91876,3.58187,2.38747,2.3875,3.58124,5.36022,3.58124,8.91813s-1.19377,6.53063-3.58124,8.91813c-2.38792,2.38792-5.36083,3.58187-8.91876,3.58187h-62.01874l77.88437,77.88437c2.33955,2.34,3.50937,5.18458,3.50937,8.53375,0,3.34959-1.16982,6.24229-3.50937,8.67813-2.43584,2.75625-5.40855,4.05437-8.91811,3.89438-3.50998-.16042-6.48289-1.45854-8.91876-3.89438l-77.25937-77.25937Z"/><path d="M127.88436,519.24811c-11.50624,0-21.11354-3.85417-28.82187-11.5625-7.70833-7.70833-11.5625-17.31563-11.5625-28.82188V109.63247c0-11.50623,3.85417-21.11355,11.5625-28.82187,7.70833-7.70832,17.31563-11.5625,28.82187-11.5625h180.33688c5.38456,0,10.61684,1.08978,15.69687,3.26939,5.07999,2.17918,9.43104,5.07977,13.05313,8.70186l88.55751,88.55751c3.62209,3.62209,6.52267,7.97314,8.70186,13.05313,2.1796,5.07996,3.26939,10.31227,3.26939,15.69687v145.72125c0,3.55749-1.19396,6.53021-3.58189,8.91813-2.3875,2.38792-5.36018,3.58187-8.91811,3.58187-3.55755,0-6.53019-1.19394-8.91811-3.58187-2.38789-2.38791-3.58189-5.36062-3.58189-8.91813V194.2481h-79.80812c-5.80124,0-10.61687-1.91502-14.44687-5.74501-3.82999-3.82999-5.74501-8.64559-5.74501-14.44687V94.2481H127.88436c-3.84583,0-7.37145,1.60248-10.57688,4.80751-3.20498,3.20538-4.80749,6.73103-4.80749,10.57686V478.86374c0,3.84583,1.60251,7.37145,4.8075,10.57688,3.20541,3.20499,6.73104,4.80749,10.57687,4.80749h209.61563c3.55751,0,6.53019,1.19396,8.91811,3.58188,2.38789,2.38792,3.58185,5.36062,3.58189,8.91812,0,3.55792-1.19396,6.53062-3.58189,8.91812-2.38792,2.38791-5.3606,3.58188-8.91811,3.58188H127.88436Zm-15.38437-25v0Z"/></svg>