<?xml version="1.0" encoding="UTF-8"?><svg id="a" xmlns="http://www.w3.org/2000/svg" viewBox="0 0 600 600"><path d="M441.92033,462.64825v74.68041c0,4.32791-1.45236,7.94422-4.35707,10.84892-2.9042,2.9042-6.52022,4.3563-10.84815,4.3563s-7.94394-1.4521-10.84815-4.3563c-2.90471-2.90471-4.35707-6.52102-4.35707-10.84893v-102.22542c0-7.05675,2.32941-12.9148,6.98833-17.57418,4.65933-4.65887,10.51748-6.98831,17.57416-6.98831h102.2254c4.32793,0,7.94422,1.45233,10.84893,4.35704,2.90415,2.9042,4.35628,6.52027,4.35628,10.84817s-1.45212,7.94397-4.35628,10.84817c-2.90471,2.90471-6.52101,4.35704-10.84893,4.35704h-75.44065l94.73987,94.73987c2.84587,2.84642,4.26886,6.30661,4.26886,10.3806,0,4.07449-1.42298,7.59323-4.26886,10.55622-2.96299,3.35275-6.57906,4.93181-10.84815,4.73719-4.2696-.19513-7.88589-1.77419-10.84893-4.73719l-93.97961-93.97961Z"/><path d="M87.25835,547.38766c-13.99639,0-25.68287-4.68827-35.05941-14.06482-9.37654-9.37654-14.06482-21.06302-14.06482-35.05942V49.12424c0-13.99638,4.68828-25.68288,14.06482-35.05941C61.57549,4.6883,73.26196,0,87.25835,0h219.36484C313.17307,0,319.5377,1.32564,325.71713,3.97694c6.17939,2.6508,11.47207,6.17911,15.87805,10.58509l107.72286,107.72286c4.40598,4.40598,7.93429,9.69866,10.58509,15.87805,2.65131,6.17934,3.97694,12.54402,3.97694,19.09394v177.2578c0,4.32739-1.45236,7.94346-4.35707,10.84817-2.9042,2.90471-6.52022,4.35704-10.84815,4.35704-4.32746,0-7.94343-1.45233-10.84815-4.35704-2.90467-2.90469-4.35707-6.52075-4.35707-10.84817V152.05213h-97.07996c-7.05673,0-12.91455-2.32946-17.57342-6.98833-4.65887-4.65887-6.98833-10.51664-6.98833-17.57342V30.41043H87.25835c-4.67813,0-8.96676,1.94928-12.86589,5.84794-3.8986,3.89907-5.84791,8.18774-5.84791,12.86587V498.26343c0,4.67813,1.94932,8.96676,5.84793,12.86589,3.89912,3.89861,8.18776,5.84791,12.86588,5.84791h254.98002c4.32742,0,7.94343,1.45236,10.84815,4.35706,2.90467,2.90471,4.35702,6.52075,4.35707,10.84816,0,4.32791-1.45236,7.94396-4.35707,10.84816-2.90471,2.9047-6.52073,4.35706-10.84815,4.35706H87.25835Zm-18.71381-30.41043v0Z"/></svg>