<?xml version="1.0" encoding="UTF-8"?><svg id="a" xmlns="http://www.w3.org/2000/svg" viewBox="0 0 568.69552 600"><path d="M450.00016,600c-32.64094,0-60.58372-11.62233-83.82836-34.86701-23.24412-23.24411-34.86618-51.18689-34.86618-83.82833s11.62206-60.58367,34.86618-83.82833c23.24464-23.24412,51.18742-34.86615,83.82836-34.86615s60.58424,11.62203,83.82836,34.86615c23.24464,23.24466,34.86701,51.18745,34.86701,83.82833s-11.62237,60.58423-34.86701,83.82833c-23.24412,23.24468-51.18691,34.86701-83.82836,34.86701ZM118.69534,498.26041c-32.64145,0-60.58424-11.62234-83.82833-34.86701C11.62233,440.14931,0,412.20652,0,379.56507s11.62233-60.58367,34.86701-83.82833c23.24409-23.24412,51.18688-34.86618,83.82833-34.86618s60.58364,11.62206,83.82833,34.86615c23.24412,23.24466,34.86613,51.18745,34.86615,83.82833-.00003,32.64143-11.62203,60.58421-34.86615,83.82833-23.24469,23.24469-51.18745,34.86701-83.82833,34.86703ZM250.43457,237.3899c-32.64091,0-60.58364-11.62206-83.82833-34.86618-23.24466-23.24464-34.86701-51.18742-34.86701-83.82836s11.62234-60.58424,34.86701-83.82836C189.85093,11.62237,217.79367,0,250.43457,0s60.5837,11.62237,83.82836,34.86701c23.24469,23.24412,34.86701,51.18691,34.86701,83.82836s-11.62232,60.58372-34.86701,83.82836c-23.24466,23.24412-51.18745,34.86618-83.82836,34.86618Z"/></svg>