<?xml version="1.0" encoding="UTF-8"?><svg id="a" xmlns="http://www.w3.org/2000/svg" viewBox="0 0 566.89733 600"><path d="M244.66614,599.99994c-6.62389,0-12.35028-2.24361-17.17916-6.73083-4.82887-4.48722-7.79889-10.04277-8.90999-16.66666l-9.35916-73.01248c-10.6411-3.20499-22.14749-8.24777-34.51917-15.12832-12.37167-6.88057-22.8953-14.25222-31.57084-22.11499l-66.73082,28.7175c-6.49555,2.90613-12.88443,3.21611-19.16666,.93-6.28167-2.28667-11.2175-6.40001-14.8075-12.34001L3.83286,416.5383c-3.16222-5.93999-4.12361-12.22193-2.88417-18.84582,1.23889-6.62389,4.55083-12.00861,9.93584-16.15417l58.01249-43.65417c-.98278-6.02557-1.79473-12.23279-2.43584-18.62167-.64111-6.38888-.96167-12.5961-.96167-18.62167,0-5.59832,.32056-11.48501,.96167-17.65999,.64111-6.175,1.45306-13.13001,2.43584-20.86499L10.88453,218.46164c-5.38499-4.14551-8.80388-9.53023-10.25666-16.15417-1.45278-6.62389-.38445-12.90583,3.20499-18.84582L42.42286,117.62831c3.59-5.94055,8.41916-10.05386,14.48749-12.33998,6.06834-2.28668,12.35028-1.97698,18.84584,.92916l66.73084,28.07749c9.95722-8.29056,20.72639-15.76914,32.30751-22.43581,11.58109-6.66667,22.84195-11.8164,33.7825-15.44917l10-73.01248c1.11112-6.62384,4.08112-12.17941,8.90999-16.66666,4.8289-4.4872,10.55527-6.73085,17.17913-6.73085h76.92331c6.62445,0,12.45778,2.24365,17.5,6.73085,5.04277,4.48725,8.11976,10.04283,9.23085,16.66666l9.35918,73.65335c12.77776,4.4872,24.07053,9.63694,33.87832,15.44917,9.80774,5.81167,19.90387,13.07668,30.28834,21.79499l69.29499-28.07749c6.49556-2.90614,12.77751-3.3228,18.84582-1.25,6.06832,2.0728,10.89752,6.07915,14.48751,12.01914l38.58998,66.47501c3.58948,5.93999,4.6578,12.22193,3.20501,18.84582-1.45279,6.62389-4.87162,12.00861-10.25665,16.15417l-60.57667,45.57668c1.83777,6.88054,2.86331,13.19471,3.07668,18.94249,.21388,5.74778,.32089,11.42085,.32084,17.01917,.00005,5.17113-.21357,10.63057-.64082,16.37832-.42781,5.74778-1.41088,12.70276-2.94917,20.86499l59.29499,44.29499c5.38442,4.14556,8.80335,9.53028,10.25665,16.15417,1.45279,6.62389,.38442,12.90583-3.20501,18.84582l-38.58998,66.92334c-3.58999,5.94-8.55804,9.9786-14.90417,12.11583-6.34608,2.13665-12.76698,1.75195-19.26249-1.15416l-66.9875-28.71832c-10.38447,8.71834-20.83308,16.19692-31.34582,22.43583-10.51275,6.23945-21.45304,11.17556-32.82084,14.80834l-9.35918,73.65333c-1.11109,6.62389-4.18808,12.17944-9.23085,16.66666-5.04222,4.48722-10.87555,6.73084-17.5,6.73083l-76.92331-.00006Zm5.44917-33.33333h65.19251l12.30748-90.25667c16.79499-4.44445,31.91248-10.54471,45.35247-18.30083,13.43999-7.75668,27.1258-18.38694,41.05748-31.89084l83.14167,35.44835,33.14081-56.66666-72.94916-54.80748c2.77781-9.48723,4.61558-18.21581,5.51336-26.18583,.89717-7.97,1.34588-15.97221,1.34583-24.00668,.00005-8.46163-.44866-16.4639-1.34583-24.00668-.89778-7.54275-2.73554-15.84389-5.51336-24.90333l74.23085-56.08998-33.14081-56.66666-85.06418,35.64081c-10.08555-11.06832-23.34416-21.44221-39.77584-31.12167-16.43168-9.67946-31.97642-16.10031-46.63416-19.26249l-10.19246-90.25664h-66.47414l-10.385,89.61501c-16.79499,3.58999-32.23304,9.36996-46.31416,17.33998-14.08111,7.96997-28.08749,18.92085-42.01917,32.85247l-83.14083-34.80748-33.14083,56.66666,72.30749,53.97415c-2.77779,7.47889-4.72221,15.5986-5.83333,24.35918-1.11112,8.76058-1.66667,17.86306-1.66667,27.30751,0,8.46166,.55555,16.85915,1.66667,25.19249,1.11112,8.33333,2.84192,16.45304,5.19249,24.35915l-71.66666,54.8075,33.14084,56.66666,82.49999-35c13.07665,13.20501,26.6558,23.79249,40.7375,31.76249,14.08111,7.97055,29.94639,14.17803,47.59582,18.62249l10.83333,89.61501Zm32.43583-183.33331c23.24775,0,42.94863-8.07696,59.1025-24.23083,16.15392-16.15389,24.23085-35.85472,24.23085-59.1025s-8.07693-42.9486-24.23085-59.10247c-16.15387-16.15392-35.85474-24.23085-59.1025-24.23085-23.37611,0-43.10915,8.07693-59.19916,24.23085-16.08945,16.15392-24.13416,35.85472-24.13416,59.1025s8.04471,42.9486,24.13416,59.1025c16.09001,16.15389,35.82306,24.2308,59.19916,24.2308Z"/></svg>