<?xml version="1.0" encoding="UTF-8"?><svg id="a" xmlns="http://www.w3.org/2000/svg" viewBox="0 0 589.81226 590.2041"><path d="M576.31836,297.57556h-.19592c-7.04083,.11017-12.88159,5.70612-13.28571,12.73462-.60022,11.00995-1.8869,21.95581-3.83057,32.77893-2.69537,15.00854-6.66272,29.77942-11.89185,44.14355-.50208,1.44489-.77142,2.96326-.77142,4.48163,0,.55652,.04535,1.10236,.11224,1.64203,.81952,6.6087,6.49323,11.80469,13.30817,11.82733,5.68164-.01221,10.76324-3.62451,12.64893-8.97552,.01227-.01221,.01227-.02448,.02454-.04895,4.7984-13.15851,8.63837-26.62775,11.51447-40.29895,3.01434-14.32825,4.96521-28.87897,5.81763-43.53387,.00916-.1579,.02222-.31543,.03113-.47333l.01227-.77142c0-7.40814-6.08569-13.50604-13.4939-13.50604Z"/><path d="M525.96686,451.12836c-1.638-.71454-3.43829-1.11609-5.32599-1.11609-4.31024,0-8.37555,2.0694-10.91028,5.57141-.02448,.03674-.06116,.07349-.08569,.11023-5.54694,7.18774-11.44897,14.0816-17.68164,20.6571-1.00403,1.05304-2.41223,1.60413-3.84491,1.51837-7.99915-.47339-15.89752-1.31885-23.69171-2.48456-10.59271-1.58429-20.98083-3.79297-31.12958-6.58667-9.52576-2.62219-18.841-5.75287-27.91138-9.37238-8.83832-3.52692-17.4436-7.51318-25.79114-11.92505-8.04144-4.25012-15.84656-8.888-23.38013-13.90369-7.4967-4.99121-14.72095-10.35693-21.66388-16.05231-6.81079-5.58704-13.34271-11.49823-19.57227-17.71155-6.30396-6.28754-12.3067-12.87366-17.96606-19.75018-5.64264-6.85614-10.94476-13.99701-15.89734-21.38641-5.09668-7.60449-9.81116-15.47876-14.12421-23.59198-4.37921-8.23749-8.34796-16.71741-11.86359-25.42023-3.69666-9.15076-6.89722-18.54303-9.57544-28.14075-2.79303-10.00891-5.01007-20.24255-6.62317-30.66064-1.75714-11.34851-2.80084-22.91333-3.06616-34.65009-.04547-2.01196-.07452-4.02759-.07452-6.04919,0-11.16888,.71368-22.26886,2.0863-33.24634,2.06012-16.47614,5.63959-32.66748,10.66119-48.37738,8.55853-26.7749,21.29047-52.14935,37.83557-75.11938,6.0885-8.45282,12.69025-16.5813,19.78833-24.33447,.99188-1.08978,2.41229-1.66534,3.88165-1.59186,.64233,.03473,1.35809,.08099,2.12134,.13501,9.72748,.68884,28.2168,2.81647,28.62561,3.1344,7.19995-.26941,13.02856-6.25714,13.02856-13.51837,0-7.02856-5.48572-12.94287-12.48981-13.48163-.12244-.01227-.23267-.02448-.3551-.03674-1.42804-.21649-2.85767-.42255-4.28864-.61829-9.98022-1.36517-20.02826-2.22571-30.09503-2.5899-.3551-.01221-.69794-.06122-1.04083-.14691-.83264-.20819-1.68976-.34283-2.55914-.39185h-7.88574c-10.82928,0-21.5249,.61475-32.06622,1.77563-16.00256,1.76227-31.63684,4.82202-46.79425,9.078-22.31293,6.2652-43.58704,15.11572-63.48212,26.19836-48.4632,26.9967-88.71063,67.24414-115.70734,115.70734-11.0827,19.89514-19.93329,41.16931-26.19849,63.4823-4.25598,15.15741-7.31573,30.79163-9.078,46.79419-1.16089,10.54132-1.77563,21.23694-1.77563,32.06622,0,2.30804,.03485,4.60846,.08868,6.90454,.27625,11.77698,1.271,23.3877,2.91504,34.80115,1.51843,10.5412,3.58752,20.91412,6.20563,31.07819,2.51678,9.77069,5.52539,19.35236,9.00006,28.71613,3.30768,8.9137,7.03296,17.63147,11.15796,26.12585,4.05939,8.35913,8.5061,16.50092,13.30963,24.40656,4.65912,7.66803,9.66614,15.10425,14.98175,22.30206,5.31641,7.19885,10.95166,14.14874,16.88184,20.83435,5.83551,6.57886,11.95093,12.90369,18.33948,18.94434,6.47626,6.12341,13.21991,11.96606,20.22217,17.49402,6.9848,5.51428,14.22827,10.71027,21.69415,15.58966,7.6756,5.01648,15.59497,9.68237,23.7337,13.98248,8.24292,4.35516,16.71063,8.32971,25.38123,11.90259,9.07269,3.73865,18.36505,7.0351,27.85248,9.86371,9.81519,2.92627,19.83368,5.35797,30.03314,7.25067,10.97412,2.0365,22.15424,3.44861,33.50043,4.21576,6.55017,.44287,13.15039,.69,19.80469,.69,5.79352,0,11.56671-.19128,17.31879-.52972,14.71613-.86597,29.27252-2.82861,43.55994-5.84369,18.66931-3.93982,36.87726-9.66376,54.36938-17.08557,35.56146-15.0885,68.17279-37.14423,95.70697-65.29205l2.02045-2.49792c8.26532-8.58368,16.00409-17.65717,23.1673-27.17145,.01227-.01227,.02454-.03674,.0368-.04895,1.83667-2.36328,2.82855-5.26532,2.82855-8.25311,0-5.50507-3.37439-10.27289-8.14337-12.35327ZM168.49408,58.60114L58.69794,168.39734c24.96002-46.27734,63.16168-84.70642,109.79614-109.7962ZM34.70715,230.10431L230.03644,34.77502c9.85437-2.46106,19.93207-4.38135,30.20441-5.7179,1.93469-.25714,3.84491,.67352,4.83673,2.35107,1.00409,1.68976,.90613,3.80811-.24487,5.3877-.38916,.53564-.76526,1.07922-1.15057,1.61719L27.45856,274.63672c1.16132-15.19672,3.61316-30.0791,7.2486-44.53241Zm-7.4386,82.4386L224.0083,115.80316c-5.42517,16.05133-9.47198,32.56281-12.07379,49.3576L31.5412,345.55408c-2.0957-10.79651-3.53387-21.81396-4.27264-33.01117Zm11.94812,63.05188L208.4848,206.32666c-.01843,1.3465-.03992,2.69269-.03992,4.04071,0,10.64417,.5885,21.17664,1.71155,31.57147L49.49426,402.60101c-3.89325-8.7724-7.33276-17.78241-10.27759-27.00623Zm22.97339,52.02661l153.31171-153.31171c2.21198,9.90222,4.93091,19.63141,8.12152,29.16229L76.79694,450.29834c-5.23297-7.29962-10.11133-14.86633-14.60687-22.67694Zm31.30975,43.69025l140.70728-140.70728c3.79572,8.45709,7.99249,16.70679,12.54376,24.73999L111.83612,490.25916c-6.41211-6.0166-12.53314-12.33881-18.3363-18.94751Zm38.72443,36.27557l129.08875-129.08875c5.06464,7.28735,10.44507,14.34705,16.13409,21.14972l-123.20221,123.20221c-7.59802-4.72766-14.9455-9.82416-22.02063-15.26318Zm46.29858,28.70142l116.94495-116.94495c6.22003,6.21362,12.72375,12.15051,19.48303,17.80072l-110.22021,110.22028c-8.95996-3.23822-17.70844-6.9339-26.20776-11.07605Zm55.25989,19.74011l102.58167-102.58167c7.39709,5.12061,15.04291,9.91577,22.92163,14.36212l-93.70685,93.70691c-10.7962-1.19373-21.40985-3.0304-31.79645-5.48737Zm67.95374,7.04626l82.63409-82.63409c8.74042,3.88318,17.72064,7.34161,26.90369,10.38007l-68.12042,68.12048c-13.62,2.4502-27.46667,3.83649-41.41736,4.13354Zm94.54211-19.54211l44.599-44.599c4.12207,.89923,8.27606,1.71936,12.46527,2.44568,1.92249,.33063,3.46533,1.77551,3.9306,3.68573,.45312,1.89795-.26935,3.89386-1.83667,5.05713-18.32178,13.70856-38.22162,24.89648-59.1582,33.41046Z"/><path d="M555.84491,231.86938c.13232,.5481,.30811,1.07605,.5036,1.59357,1.95776,5.18237,6.95398,8.74115,12.59845,8.74115h.03674c7.38367,0,13.46942-6.08569,13.46942-13.46942,0-1.05304-.13477-2.10614-.37964-3.1347-1.14142-4.72827-2.40991-9.42041-3.7832-14.0788-2.79297-9.47418-6.05762-18.79584-9.78833-27.92786-5.35645-13.11121-11.65887-25.83563-18.87744-38.06268l-.06122-.11023c-2.63263-3.74695-7.00409-5.90204-11.59595-5.70612-6.7561,.27716-12.23248,5.62073-12.83374,12.24731-.03625,.39935-.06012,.802-.06012,1.20984,0,2.0816,.47754,4.13879,1.40814,6,3.64691,6.20105,7.02716,12.54419,10.15369,19.0047,4.13947,8.55359,7.82056,17.31854,11.0213,26.26245,3.21313,8.97858,5.95184,18.133,8.18829,27.43079Z"/><path d="M412.16327,53.51019v.01227c5.36658,2.59601,10.63422,5.37738,15.80573,8.32001,7.83112,4.45593,15.43219,9.297,22.76868,14.51508,7.2926,5.18683,14.3219,10.74573,21.06946,16.64679,1.79388,1.56885,3.57471,3.15356,5.32758,4.77118l.02448,.02448c2.4245,2.26532,9.19592,2.96326,9.19592,2.96326,7.32251-.0979,13.28577-6.14691,13.28577-13.46936,0-3.73468-1.55518-7.31018-4.29797-9.85712-21.31842-19.46942-45.37964-35.69391-71.40002-48.17145-.01227,0-.02448,0-.02448-.01227-1.78778-.86938-3.74695-1.32245-5.74286-1.34692h-.15918c-7.38367,0-13.46942,6.08569-13.46942,13.46936,0,1.79761,.36591,3.53851,1.02948,5.14331,1.24402,3.00842,3.55243,5.53009,6.58685,6.99139Z"/></svg>