<?xml version="1.0" encoding="UTF-8"?><svg id="a" xmlns="http://www.w3.org/2000/svg" viewBox="0 0 600 600"><path d="M569.62056,594.3041l-88.47649-88.27763c-23.66459,18.01288-49.71333,32.06346-78.14627,42.1518-28.43237,10.08833-58.52053,15.13249-90.26463,15.13249-38.18951,0-73.98425-7.18528-107.38415-21.55586-33.39935-14.37116-62.58245-34.04014-87.54929-59.00701-24.96685-24.96685-44.63585-54.14995-59.00701-87.54928-14.37059-33.39932-21.55589-69.19406-21.55589-107.38418,0-32.18546,5.15436-62.38414,15.46309-90.59612,10.30931-28.21193,24.47068-53.92926,42.48412-77.15188L5.38257,30.26499C2.02726,26.90967,.2391,22.92526,.01814,18.31191-.20226,13.69794,1.58588,9.49257,5.38257,5.69591,9.17926,1.89867,13.27411,.00005,17.66712,0c4.39301,.00005,8.48815,1.89867,12.28542,5.69591L594.18963,569.93302c3.35585,3.35589,5.14406,7.30753,5.36445,11.85495,.22101,4.54741-1.56721,8.71946-5.36445,12.51614-3.79666,3.79725-7.89152,5.69588-12.28454,5.69588s-8.48788-1.89863-12.28454-5.6959Zm-256.88742-65.43038c26.84311,0,52.41717-4.31552,76.72231-12.9466,24.3045-8.63166,46.39043-20.40882,66.25773-35.33154L119.28997,144.17237c-14.92273,20.30922-26.58941,42.50565-35.00008,66.58919-8.41067,24.08412-12.61602,49.7684-12.61602,77.05288,0,67.15223,23.38849,124.11682,70.16546,170.89381,46.77699,46.77698,103.74156,70.16547,170.89381,70.16547Zm115.23235-362.913c-4.90098,0-8.99611-1.64466-12.28543-4.93398-3.28932-3.28932-4.93398-7.38419-4.93398-12.28454,0-4.90098,1.64466-8.99585,4.93398-12.28454,3.28932-3.28932,7.38445-4.93398,12.28543-4.93398h68.21115c-23.97335-26.4017-51.63318-47.13029-82.97952-62.18556-31.34682-15.05533-64.83481-22.58297-100.46395-22.58297-17.7041,0-35.43028,1.79904-53.17855,5.39713-17.74827,3.59809-34.45914,9.43687-50.13257,17.51641-4.19386,1.81018-8.49849,2.17465-12.91389,1.09339-4.41482-1.08189-7.74802-3.7201-9.99965-7.91449-2.2516-4.19444-2.72628-8.64257-1.42396-13.34435,1.30229-4.70183,4.05067-7.89152,8.24508-9.56918,18.36643-8.9186,37.83658-15.75089,58.41039-20.49691,20.57381-4.74602,40.90486-7.11903,60.99314-7.11903,39.55843,0,77.22967,8.1676,113.01375,24.50281,35.78355,16.33573,66.98639,39.11727,93.60847,68.34462V40.1329c0-4.90098,1.64471-8.99611,4.93398-12.28543,3.28927-3.28874,7.38445-4.93314,12.28543-4.93309,4.90046-.00005,8.99522,1.64435,12.28454,4.93309,3.28932,3.28932,4.93398,7.38445,4.93398,12.28543v98.01299c0,7.9911-2.63811,14.62481-7.91449,19.90119-5.27575,5.27575-11.90925,7.91365-19.9003,7.91365h-98.01304Zm-115.23235,21.05911c-4.90038,0-8.99524-1.64466-12.28456-4.93398-3.28932-3.28932-4.93398-7.38419-4.93396-12.28454v-36.95356c-.00003-4.90041,1.64466-8.99522,4.93396-12.28454,3.28932-3.28927,7.38419-4.93393,12.28459-4.93398,4.90096,0,8.99611,1.64466,12.2854,4.93398,3.28874,3.28932,4.93312,7.38419,4.93312,12.28454v36.9535c0,4.90041-1.64437,8.99527-4.93312,12.28454-3.2893,3.28932-7.38445,4.93398-12.28543,4.93404Zm222.97984,226.755c-4.06186-3.00234-6.40182-6.6779-7.01998-11.02675-.61816-4.34882,.26489-8.88534,2.64909-13.60953,3.92929-7.24039,7.37299-15.49638,10.33111-24.76799,2.95812-9.27159,5.23187-17.74824,6.82109-25.43003,1.54566-5.20977,4.20589-9.26071,7.9808-12.15283,3.77491-2.89154,8.04622-3.98407,12.814-3.27755,5.34232,.70597,9.22768,3.21126,11.65608,7.51589,2.4284,4.30463,2.93605,8.99582,1.52296,14.07354-2.29577,10.68407-4.91155,22.0968-7.84733,34.23818-2.93637,12.14135-7.82616,22.16338-14.66932,30.06612-3.26699,4.72419-7.10779,7.38416-11.52261,7.97993-4.4154,.59635-8.65403-.60665-12.71589-3.60899Z"/></svg>