<?xml version="1.0" encoding="UTF-8"?><svg id="a" xmlns="http://www.w3.org/2000/svg" viewBox="0 0 600 600"><path d="M313.82672,563.09899c-38.22395,0-74.02729-7.18528-107.41-21.55586-33.38211-14.37116-62.55659-34.04014-87.52346-59.00701-24.96685-24.96685-44.63587-54.13734-59.00701-87.51142-14.37058-33.37465-21.55586-69.16937-21.55586-107.38415s7.18528-74.02272,21.55586-107.42206c14.37114-33.39935,34.04015-62.58245,59.00701-87.5493,24.96687-24.96685,54.14135-44.63584,87.52346-59.00701,33.38269-14.37054,69.18602-21.55583,107.41-21.55583,39.55843,0,77.22967,8.1676,113.01375,24.50281,35.78355,16.33573,66.98639,39.11727,93.60847,68.34462V39.92113c0-4.8786,1.65239-8.968,4.95721-12.2682,3.30482-3.30025,7.39995-4.95038,12.28543-4.95032,4.8849-.00005,8.97199,1.65007,12.26131,4.95032,3.28932,3.3002,4.93398,7.3896,4.93398,12.2682v98.01299c0,7.88096-2.66575,14.48682-7.99714,19.81764-5.33087,5.33145-11.93673,7.99714-19.81764,7.99714h-98.01299c-4.87912,0-8.96878-1.65239-12.26904-4.95721-3.3002-3.30482-4.95032-7.39969-4.95032-12.28454,0-4.88548,1.65013-8.97257,4.95032-12.26131,3.30025-3.28932,7.38991-4.93398,12.26904-4.93398h68.21115c-23.97335-26.4017-51.63318-47.13029-82.97947-62.18556-31.34692-15.05528-64.83492-22.58291-100.46406-22.58291-67.15223,0-124.11685,23.38851-170.89381,70.16547-46.77699,46.77696-70.16548,103.74158-70.16547,170.89381-.00001,67.15223,23.38848,124.11682,70.16547,170.89381,46.77696,46.77698,103.74158,70.16547,170.89381,70.16547,56.73271,0,106.95343-17.79248,150.66208-53.37741,43.70865-35.58495,71.78806-80.75057,84.23817-135.49685,1.54566-5.20917,4.17263-9.22682,7.88091-12.05296,3.7088-2.82554,8.01438-3.88507,12.91646-3.17853,5.20801,.70652,9.02622,3.21208,11.45461,7.51673,2.4284,4.3046,2.93605,8.99553,1.52296,14.0727-13.11252,63.44393-44.63558,115.46366-94.56929,156.05919-49.93371,40.5961-107.96902,60.89416-174.10592,60.89416Zm17.21852-282.64891l103.31115,103.31112c3.22332,3.22332,4.94517,7.17465,5.16556,11.8541,.22096,4.67997-1.50089,8.85232-5.16556,12.517-3.66409,3.66469-7.7259,5.49702-12.18554,5.49702-4.45901,0-8.52088-1.83233-12.18554-5.49702l-105.03297-105.03297c-3.00179-3.00231-5.14288-6.15188-6.42337-9.44867-1.28049-3.29678-1.92072-6.70347-1.92072-10.22005V132.63598c0-4.8786,1.65239-8.968,4.95721-12.2682,3.3048-3.3002,7.39966-4.95032,12.28456-4.95032,4.88546,0,8.97286,1.65013,12.26218,4.95032,3.28874,3.3002,4.93314,7.3896,4.93312,12.2682l-.00008,147.8141Z"/></svg>