<?xml version="1.0" encoding="UTF-8"?><svg id="a" xmlns="http://www.w3.org/2000/svg" viewBox="0 0 473.68387 600"><path d="M213.15845,361.57675v116.35845c0,6.72001,2.26712,12.3474,6.80133,16.88215,4.53423,4.53423,10.16158,6.80134,16.88215,6.80134s12.34792-2.2671,16.88215-6.80134c4.53421-4.53475,6.80133-10.16214,6.80133-16.88215v-116.35845l41.78302,41.78299c2.3479,2.3479,4.98949,4.10897,7.92478,5.28316,2.93528,1.17422,5.87028,1.68026,8.80503,1.51817,2.93528-.16212,5.84031-.83002,8.71502-2.00368,2.87423-1.17419,5.48528-2.93553,7.83318-5.28396,4.57529-4.89845,6.94371-10.44475,7.10528-16.63898,.1621-6.19423-2.20633-11.74056-7.10528-16.63898l-78.76519-78.76521c-2.95528-2.95579-6.07264-5.04081-9.35214-6.25502-3.27897-1.21474-6.82135-1.82215-10.62713-1.82212-3.80578-.00002-7.34819,.60738-10.62713,1.82212-3.27945,1.21421-6.39685,3.29923-9.35214,6.25502l-78.76519,78.76519c-4.69631,4.69578-7.01423,10.1916-6.95371,16.48741,.06052,6.29528,2.54028,11.89213,7.43923,16.79057,4.89845,4.57526,10.44475,6.94369,16.63898,7.10528,6.19423,.16212,11.74083-2.20631,16.63978-7.10528l41.29665-41.29668ZM57.08541,599.99999c-15.95161,0-29.45375-5.52633-40.50642-16.57899C5.52634,572.36834,.00001,558.8662,0,542.91459V57.0854c.00001-15.95156,5.52634-29.45375,16.57899-40.50641C27.63166,5.52633,41.1338,0,57.08541,0h227.18664c7.61109,0,14.92872,1.47791,21.95296,4.43372,7.02423,2.95528,13.12768,7.02394,18.31031,12.20608l132.50876,132.50876c5.18214,5.18262,9.2508,11.28607,12.20608,18.31031,2.95581,7.02423,4.43372,14.34187,4.43372,21.95296v353.50277c0,15.95162-5.52633,29.45376-16.57899,40.50642-11.05266,11.05265-24.55484,16.57898-40.50641,16.57899H57.08541ZM284.21124,160.92993V47.36777H57.08541c-2.42948,0-4.65658,1.01209-6.68133,3.03633-2.0242,2.02472-3.03632,4.25186-3.03632,6.68134v485.82917c0,2.42948,1.01212,4.65659,3.03632,6.68133,2.02475,2.02421,4.25185,3.03632,6.68133,3.03632H416.59843c2.42948,0,4.65663-1.01211,6.68134-3.03632,2.02424-2.02474,3.03633-4.25185,3.03633-6.68133V189.47263h-113.56211c-8.13737,0-14.92872-2.72288-20.37401-8.16869-5.44581-5.44528-8.16869-12.23663-8.16874-20.37401ZM47.36775,47.36777v0Z"/></svg>