<?xml version="1.0" encoding="UTF-8"?><svg id="a" xmlns="http://www.w3.org/2000/svg" xmlns:xlink="http://www.w3.org/1999/xlink" viewBox="0 0 597.09998 277.219"><defs><style>.c{fill:#18181b;}.d{fill:#fff;}.e{stroke-width:4.18117px;}.e,.f{stroke:#a3a3a3;stroke-linecap:round;stroke-linejoin:round;}.e,.f,.g{fill:none;}.h{fill:#d4d4d4;}.i{clip-path:url(#b);}.f{stroke-width:3.13588px;}</style><clipPath id="b"><rect class="g" x="2.48767" y="3.00318" width="592.12402" height="272.37598" rx="20.17432" ry="20.17432"/></clipPath></defs><g><rect class="c" x="2.48767" y="3.00318" width="592.12402" height="272.37598" rx="20.17432" ry="20.17432"/><g class="i"><g><path class="f" d="M177.16234,36.35541L235.59628,2.09058"/><path class="e" d="M344.19589,41.87433L395.89178,2.09058"/><g><path class="f" d="M177.16234,160.69643l48.25487,35.89528"/><circle class="h" cx="176.47873" cy="160.3823" r="3.8886"/><circle class="h" cx="223.32661" cy="195.68105" r="3.8886"/></g><g><path class="f" d="M513.86127,127.71425l-42.11267-15.55413-20.71558,44.32069"/><circle class="h" cx="451.03299" cy="156.48464" r="3.88859"/><circle class="h" cx="514.35674" cy="127.66566" r="3.8886" transform="translate(170.14188 530.62659) rotate(-63.43496)"/></g><g><path class="f" d="M482.32907,189.26127l86.53757-45.49127-28.05981-63.6168,54.72522-23.10113"/><path class="f" d="M482.32907,189.26127l44.63162,29.91264"/><circle class="h" cx="483.05862" cy="189.0306" r="3.88859"/><circle class="h" cx="527.63196" cy="220.40731" r="3.8886"/><circle class="h" cx="567.74048" cy="142.64759" r="3.8886"/><circle class="h" cx="542.81903" cy="80.50319" r="3.88861"/></g><g><path class="f" d="M480.56885,72.89891l27.94482-49.86054L434.98151,2.09058"/><circle class="h" cx="480.88861" cy="71.97693" r="3.88858"/><circle class="h" cx="506.92474" cy="23.54768" r="3.88859"/></g><g><path class="f" d="M100.67625,67.50502l-49.43808-31.1496-20.68426,41.93712,86.20526,33.86747L148.97499,31.4007"/><circle class="h" cx="100.67625" cy="67.51902" r="3.88859"/><circle class="h" cx="148.98125" cy="30.80715" r="3.88859"/><circle class="h" cx="51.3322" cy="37.16557" r="3.88859"/><circle class="h" cx="32.64442" cy="77.4581" r="3.88859"/><circle class="h" cx="116.17373" cy="110.07721" r="3.88859"/></g><g><path class="f" d="M177.16234,125.81163l-56.71959,56.73893-43.95247-35.83302"/><circle class="h" cx="120.357" cy="182.55056" r="3.88859"/><circle class="h" cx="76.48817" cy="146.70899" r="3.32827"/></g><g><path class="f" d="M135.09766,269.21946l-46.50457-85.9973-63.28283,28.80508L1.56794,157.57711"/><path class="f" d="M135.09766,269.21946l61.43629-38.86314"/><circle class="h" cx="134.85841" cy="268.49266" r="3.88872" transform="translate(-3.14427 1.6025) rotate(-.67298)"/><circle class="h" cx="196.53394" cy="230.4555" r="3.88872"/><circle class="h" cx="87.48397" cy="184.36146" r="3.88872"/><circle class="h" cx="25.6366" cy="210.01108" r="3.88872"/></g><g><path class="f" d="M234.65637,225.95791l17.76921,41.22697,46.38493-15.55302"/><circle class="h" cx="298.81327" cy="251.62918" r="3.88873"/><circle class="h" cx="234.27951" cy="225.63248" r="3.88872"/></g><g><path class="f" d="M492.1745,228.89313l-50.97205,31.91949"/><circle class="h" cx="492.71552" cy="228.37032" r="3.88846"/><circle class="h" cx="442.81033" cy="259.19565" r="3.88846"/></g></g></g></g><g><g><path class="d" d="M424.97156,219.97782c-.66098-.10989-1.34262-.16525-2.04492-.16525-2.2998,0-3.849,.88159-4.64755,2.64394v15.28529h-5.01935v-22.34959h4.79214l.12393,2.49934c1.21167-1.94165,2.89182-2.91248,5.04001-2.91248,.71594,0,1.30835,.09666,1.7764,.28918l-.02066,4.70952v.00005Z"/><path class="d" d="M400.4118,238.15493c-3.181,0-5.75967-1.00182-7.7356-3.00542s-2.96411-4.67152-2.96411-8.00414v-.61967c0-2.23083,.43048-4.22411,1.29099-5.97986s2.06888-3.12233,3.62509-4.10017c1.55621-.97743,3.29129-1.46655,5.20526-1.46655,3.04343,0,5.39447,.97083,7.05396,2.91248s2.48904,4.68887,2.48904,8.24167v2.02428h-14.60367c.15161,1.84538,.76758,3.30493,1.84869,4.37903s2.4407,1.61115,4.07953,1.61115c2.2998,0,4.17249-.9295,5.61838-2.78853l2.7059,2.58199c-.89523,1.33601-2.08954,2.37212-3.58377,3.1087s-3.17068,1.10509-5.02969,1.10509v-.00003Zm-.59903-19.14793c-1.37692,0-2.48904,.48212-3.33591,1.44591-.84689,.9642-1.38724,2.30684-1.62149,4.02788h9.56363v-.3718c-.11029-1.67973-.55771-2.95006-1.34262-3.811-.78491-.86052-1.87265-1.29099-3.26361-1.29099Z"/><path class="d" d="M386.32455,226.79424c0,3.45654-.78491,6.2141-2.35477,8.27264-1.56985,2.05898-3.67673,3.08804-6.32068,3.08804-2.45102,0-4.41333-.80557-5.8869-2.41673v10.59644h-5.01935v-30.9424h4.62689l.20657,2.27214c1.4736-1.79002,3.4772-2.68526,6.01083-2.68526,2.72656,0,4.86444,1.01585,6.41364,3.04674,1.54919,2.0313,2.32379,4.85081,2.32379,8.45856v.30984l-.00003-.00002Zm-4.99872-.43378c0-2.23083-.44409-4.0002-1.33231-5.30853-.88821-1.30794-2.15854-1.9623-3.811-1.9623-2.05194,0-3.52512,.84689-4.42035,2.54066v9.91479c.90887,1.73509,2.39606,2.60263,4.46167,2.60263,1.59753,0,2.8472-.64365,3.74902-1.93132,.90182-1.28728,1.35297-3.23924,1.35297-5.85593v-.00002Z"/><path class="d" d="M361.2897,237.74181h-5.01935v-31.72733h5.01935v31.72733Z"/><path class="d" d="M343.09195,238.15493c-3.181,0-5.75967-1.00182-7.7356-3.00542s-2.96411-4.67152-2.96411-8.00414v-.61967c0-2.23083,.43048-4.22411,1.29099-5.97986s2.06888-3.12233,3.62509-4.10017c1.55621-.97743,3.29129-1.46655,5.20526-1.46655,3.04343,0,5.39447,.97083,7.05396,2.91248s2.48904,4.68887,2.48904,8.24167v2.02428h-14.60367c.15161,1.84538,.76758,3.30493,1.84869,4.37903s2.4407,1.61115,4.07953,1.61115c2.29984,0,4.17245-.9295,5.61838-2.78853l2.7059,2.58199c-.89523,1.33601-2.08954,2.37212-3.58377,3.1087s-3.17068,1.10509-5.02969,1.10509v-.00003Zm-.59903-19.14793c-1.37692,0-2.48904,.48212-3.33591,1.44591-.84689,.9642-1.38724,2.30684-1.62149,4.02788h9.56363v-.3718c-.11029-1.67973-.55771-2.95006-1.34262-3.811-.78491-.86052-1.87265-1.29099-3.26361-1.29099Z"/><path class="d" d="M327.55878,237.74181h-5.20526v-13.34364h-13.44693v13.34364h-5.22592v-30.07486h5.22592v12.51743h13.44693v-12.51743h5.20526v30.07486Z"/></g><g><path class="d" d="M425.29236,184.47977c-.1731-.14005-.3999-.19415-.61719-.14832-1.44757,.30818-2.57538,.46393-3.35245,.46393-1.49341,0-2.53613-.34743-3.10498-1.03981-.6019-.71634-.9068-1.86357-.9068-3.40904v-26.01723h7.31174c.40732,0,.7374-.33008,.7374-.73741v-5.70059c0-.40733-.33008-.73741-.7374-.73741h-7.31174v-9.70369c0-.40733-.33008-.73741-.7374-.73741h-7.37247c-.40732,0-.7374,.33008-.7374,.73741v9.70369h-7.12335c-.40732,0-.7374,.33008-.7374,.73741v5.70059c0,.40733,.33008,.73741,.7374,.73741h7.12335v26.01723c0,3.83453,.9035,6.85236,2.68442,8.96957,1.8107,2.15399,4.50711,3.24628,8.01443,3.24628,1.88919,0,3.86057-.27721,5.86005-.82375,.32059-.08759,.54324-.37883,.54324-.71097v-5.9749c0-.22226-.1008-.43295-.27347-.57298v-.00002Z"/><path class="d" d="M391.71219,137.85009c1.16541-1.24968,2.80341-1.85696,5.00739-1.85696,1.35336,0,2.64767,.1165,3.84735,.3466,.20779,.03925,.42221-.01115,.58951-.14087,.1673-.1293,.271-.32388,.28506-.53499l.3941-5.98315c.02271-.34991-.20367-.6676-.54242-.75972-1.71609-.46683-3.48257-.70354-5.2507-.70354-4.70828,0-8.41312,1.34966-11.00995,4.0097-2.60345,2.64848-3.92377,6.43015-3.92377,11.24089v3.68582h-6.07736c-.40732,0-.7374,.33008-.7374,.73741v5.70059c0,.40733,.33008,.73741,.7374,.73741h6.07736v36.69835c0,.40733,.33008,.73741,.7374,.73741h7.37247c.40732,0,.7374-.33008,.7374-.73741v-36.69835h8.47797c.40732,0,.7374-.33008,.7374-.73741v-5.70059c0-.40733-.33008-.73741-.7374-.73741h-8.47797v-3.80563c0-2.39815,.59076-4.24806,1.75616-5.49815Z"/><path class="d" d="M367.39371,180.9468l-.0004-19.87129c-.10742-4.5513-1.66815-8.18672-4.63806-10.80464-2.93726-2.59685-7.03-3.91386-12.16379-3.91386-3.23676,0-6.24301,.61307-8.93198,1.82101-2.72946,1.21291-4.9202,2.89346-6.51071,4.99335-1.61899,2.12755-2.43985,4.37489-2.43985,6.67885,0,.40733,.33008,.73741,.7374,.73741h7.41501c.40732,0,.7374-.33008,.7374-.73741,0-1.65041,.77542-3.0331,2.37006-4.22659,1.64752-1.22861,3.72589-1.85117,6.17691-1.85117,2.79266,0,4.9136,.70065,6.30499,2.08417,1.41037,1.39427,2.09573,3.23634,2.09573,5.63077v2.64848h-6.44626c-6.31696,0-11.31113,1.30214-14.84451,3.8709-3.60278,2.62535-5.4296,6.34753-5.4296,11.06242,0,3.90189,1.46036,7.1655,4.33856,9.69914,2.84845,2.51753,6.53427,3.79407,10.95502,3.79407,4.46579,0,8.41187-1.52689,11.7511-4.54221,.24911,1.51944,.54614,2.6171,.9006,3.33426,.12436,.25159,.38049,.41064,.66098,.41064h7.74139c.40732,0,.7374-.33008,.7374-.73741v-.63412c0-.1008-.02066-.20036-.06073-.2925-.96667-2.23621-1.45667-5.31598-1.45667-9.15424v-.00003Zm-12.98837,2.02757c-1.95157,1.12904-4.03946,1.7012-6.20584,1.7012-2.23538,0-4.07333-.59819-5.46469-1.78053-1.38187-1.16623-2.05319-2.75714-2.05319-4.8632,0-4.83966,4.19189-7.19194,12.8157-7.19194h5.0491v7.93555c-.87457,1.71071-2.26636,3.12233-4.14108,4.19891v.00002Z"/><path class="d" d="M328.94662,146.9903c-.86258-.42592-2.03748-.63332-3.59247-.63332-3.94073,0-7.16138,1.45583-9.60248,4.33359l-.06775-2.81705c-.00949-.40031-.3367-.71965-.737-.71965h-7.17499c-.40732,0-.7374,.33008-.7374,.73741v43.13637c0,.40733,.33008,.73741,.7374,.73741h7.37207c.40732,0,.7374-.33008,.7374-.73741v-30.46112c1.63181-3.7639,4.6145-5.59401,9.11252-5.59401,1.30875,0,2.45474,.08633,3.50323,.26357,.21274,.03593,.43295-.02354,.59903-.16359,.16565-.14005,.26151-.34619,.26151-.56308v-6.85814c0-.28052-.15945-.53664-.41104-.661l-.00003,.00002Z"/><path class="d" d="M298.47952,171.87684h-7.698c-.36334,0-.67236,.26482-.72833,.62381-.71429,4.57857-2.15253,7.81367-4.27493,9.61569-2.12115,1.80035-5.25443,2.71335-9.31247,2.71335-4.51639,0-7.93143-1.72311-10.43985-5.26888-2.52682-3.57222-3.80811-8.48499-3.80811-14.60159v-5.62334c0-6.47229,1.35049-11.51273,4.01404-14.98166,2.65469-3.45737,6.2265-5.13792,10.91949-5.13792,3.77463,0,6.73752,.9799,8.80515,2.91248,2.08542,1.95569,3.46317,5.18999,4.09521,9.6132,.05185,.36354,.36292,.63332,.72977,.63332h7.698c.20844,0,.40714-.08841,.54675-.2429,.14005-.15492,.20779-.36148,.18674-.56886-.63373-6.25127-2.89841-11.21652-6.73071-14.75691-3.83722-3.55487-8.99539-5.35728-15.33096-5.35728-4.77563,0-9.0394,1.14227-12.67358,3.39458-3.64038,2.26181-6.49109,5.53947-8.47302,9.74211-1.96375,4.17123-2.95937,9.06749-2.95937,14.55243v5.5808c0,8.37469,2.14345,15.17336,6.37108,20.2084,4.26273,5.06604,9.99905,7.6348,17.04932,7.6348,6.48676,0,11.76947-1.74294,15.70111-5.17966,3.93536-3.44043,6.3056-8.38048,7.04486-14.68256,.02438-.20905-.04172-.41849-.18137-.57588-.14005-.15739-.34042-.24747-.5509-.24747l.00006-.00005h.00003Z"/></g><g><path class="d" d="M408.0412,111.49264c-6.31061,0-11.11868-2.10354-14.62457-6.11028-3.60605-4.10691-5.30893-9.91668-5.40909-17.42931v-6.51095c0-7.71297,1.70285-13.82325,5.10858-18.23066s8.01346-6.61112,13.9234-6.61112c5.80978,0,10.117,1.9032,13.12207,5.60943,3.10522,3.8064,4.60776,9.516,4.70792,17.22897v5.10859h-31.45288v3.00505c0,6.01011,1.30219,10.71802,3.8064,14.02358,2.60437,3.30556,6.31061,4.90825,11.01852,4.90825,5.20877,0,9.41583-1.9032,12.62122-5.7096l2.90488,3.60606c-3.50589,4.70792-8.71466,7.11196-15.72644,7.11196v.00004Zm-1.00168-49.78372c-4.20706,0-7.51263,1.50253-9.8165,4.50758s-3.60605,7.41247-3.8064,13.22224h25.9436v-1.40236c-.20035-10.91836-4.30725-16.32746-12.32071-16.32747Z"/><path class="d" d="M369.67303,44.07927v13.52274h9.01517v4.90825h-9.01517v35.15913c0,2.90489,.40067,5.00842,1.30219,6.41078,.80136,1.40236,2.30386,2.20371,4.30725,2.20371,.90152,0,2.2037-.20034,3.90656-.50084l.10016,4.80809c-1.20203,.60101-3.00504,.90152-5.30893,.90152-6.31061,0-9.61615-4.40741-9.71634-13.12207V62.51027h-8.21381v-4.90825h8.21381v-13.52274h5.40912Z"/><path class="d" d="M346.48889,110.49096h-5.50925V57.60201h5.50925v52.88895Zm-6.31061-68.21472c0-1.10185,.30051-2.00337,1.00168-2.80472,.60101-.80135,1.50253-1.20202,2.60437-1.20202s2.00336,.40067,2.70456,1.20202c.60101,.80135,.90152,1.70287,.90152,2.80472s-.30051,2.10353-.90152,2.80472c-.70117,.80135-1.60269,1.20202-2.70456,1.20202s-2.00336-.40067-2.60437-1.20202c-.70117-.70118-1.00168-1.70287-1.00168-2.80472Z"/><path class="d" d="M297.362,57.60201l.10016,8.41415c1.60269-2.90488,3.60605-5.20876,6.0101-6.91162,2.50421-1.70286,5.20877-2.50421,8.314-2.50421,9.21548,0,13.9234,6.11027,14.22391,18.43099v35.45963h-5.40909v-34.85862c0-4.70792-.90152-8.21381-2.50421-10.51769-1.60269-2.2037-4.20706-3.30556-7.71298-3.30556-2.80472,0-5.30893,1.00168-7.61279,3.20539-2.30386,2.10354-4.00674,5.00842-5.20877,8.71465v36.76183h-5.40909V57.60201h5.20877Z"/><path class="d" d="M247.66418,110.49096V62.51027h-7.31229v-4.90825h7.31229v-6.11027c.10017-5.4091,1.50253-9.61617,4.1069-12.62122,2.70454-3.00506,6.31061-4.50758,10.91837-4.50758,3.70624,0,7.51263,.90152,11.41919,2.90488l-.90152,5.10859c-3.30557-1.70287-6.71127-2.60438-10.117-2.60438-6.41077,0-9.8165,3.90657-9.91667,11.71971v6.11027h10.11702v4.90825h-10.117v47.98069h-5.50928Zm29.34933,0h-5.50925V57.60201h5.50925v52.88895Z"/><path class="d" d="M201.74271,57.60201l.10017,8.41415c1.60269-2.90488,3.60606-5.20876,6.0101-6.91162,2.50421-1.70286,5.20876-2.50421,8.31398-2.50421,9.21548,0,13.92342,6.11027,14.22391,18.43099v35.45963h-5.40909v-34.85862c0-4.70792-.90152-8.21381-2.50421-10.51769-1.60269-2.2037-4.20708-3.30556-7.71297-3.30556-2.80472,0-5.30893,1.00168-7.61279,3.20539-2.30386,2.10354-4.00674,5.00842-5.20876,8.71465v36.76183h-5.40909V57.60201h5.20874Z"/><path class="d" d="M179.8916,121.31421V41.89176c1.50832-.9416,2.51712-2.61167,2.51712-4.51709,0-2.93726-2.38947-5.32672-5.32672-5.32672s-5.32672,2.38946-5.32672,5.32672c0,1.9095,1.01317,3.58254,2.52689,4.52303V121.30829c-1.5137,.94048-2.52689,2.61353-2.52689,4.52303,0,2.93726,2.38947,5.32713,5.32672,5.32713s5.32672-2.38988,5.32672-5.32713c0-1.90542-1.0088-3.5755-2.51712-4.51711Z"/></g></g><path class="d" d="M574.43787,277.219H22.66199c-12.13867,0-22.01416-9.875-22.01416-22.01367V23.1775c0-12.13867,9.87549-22.01416,22.01416-22.01416H574.43787c12.13867,0,22.01367,9.87549,22.01367,22.01416V255.20533c0,12.13867-9.875,22.01367-22.01367,22.01367ZM22.66199,3.00318C11.53797,3.00318,2.48767,12.05347,2.48767,23.1775V255.20533c0,11.12402,9.05029,20.17383,20.17432,20.17383H574.43787c11.12402,0,20.17383-9.0498,20.17383-20.17383V23.1775c0-11.12402-9.0498-20.17432-20.17383-20.17432H22.66199Z"/></svg>